<svg width="70" height="70" viewBox="0 0 70 70" fill="none" xmlns="http://www.w3.org/2000/svg">
<rect width="70" height="70" rx="35" fill="black"/>
<path d="M26.1779 27.1352C26.0414 26.7011 25.5788 26.46 25.1451 26.5967C24.7112 26.7332 24.4702 27.1956 24.6066 27.6294C24.6724 27.8386 24.7058 28.0571 24.7058 28.2793C24.7058 29.4717 23.736 30.4419 22.544 30.4419C21.3516 30.4419 20.3815 29.4718 20.3815 28.2793C20.3815 27.0873 21.3516 26.1176 22.544 26.1176C22.7588 26.1176 22.9707 26.1488 23.1738 26.2104C23.6091 26.3425 24.0689 26.0969 24.2011 25.6617C24.3331 25.2265 24.0875 24.7666 23.6523 24.6344C23.2941 24.5257 22.9212 24.4705 22.5441 24.4705C20.4435 24.4705 18.7345 26.1791 18.7345 28.2793C18.7345 30.3799 20.4435 32.0889 22.5441 32.0889C24.6443 32.0889 26.3529 30.3799 26.3529 28.2793C26.3529 27.8894 26.294 27.5045 26.1779 27.1352Z" fill="white"/>
<path d="M55.1765 46.1294C54.7216 46.1294 54.353 46.4982 54.353 46.9529V47.6117C54.353 48.0665 54.7217 48.4352 55.1765 48.4352C55.6313 48.4352 56 48.0666 56 47.6118V46.953C56 46.4982 55.6313 46.1294 55.1765 46.1294Z" fill="white"/>
<path d="M55.1765 45.3058C55.6314 45.3058 56 44.937 56 44.4823V35.9999C56 35.5451 55.6313 35.1764 55.1765 35.1764H27.5805C29.705 33.6206 31.0875 31.1086 31.0875 28.2794C31.0875 23.5687 27.255 19.7361 22.5442 19.7361C17.8329 19.7361 14 23.5686 14 28.2793V43.7205C14 48.4312 17.8329 52.2638 22.5441 52.2638H55.1765C55.6314 52.2638 56 51.895 56 51.4403V50.0822C56 49.6275 55.6313 49.2587 55.1765 49.2587C54.7217 49.2587 54.353 49.6275 54.353 50.0822V50.6167H47.7647V36.8234H54.353V44.4823C54.353 44.9371 54.7216 45.3058 55.1765 45.3058ZM22.5441 21.3831C26.3467 21.3831 29.4403 24.4767 29.4403 28.2793C29.4403 32.0824 26.3467 35.1763 22.5441 35.1763C18.7411 35.1763 15.6471 32.0824 15.6471 28.2793C15.647 24.4767 18.7411 21.3831 22.5441 21.3831ZM46.1176 50.6167H43.1529V48.4171C43.1529 47.9623 42.7842 47.5936 42.3294 47.5936C41.8746 47.5936 41.5059 47.9624 41.5059 48.4171V50.6167H38.6507V49.929C38.6507 49.4742 38.282 49.1055 37.8272 49.1055C37.3724 49.1055 37.0037 49.4743 37.0037 49.929V50.6167H34.1493V48.4171C34.1493 47.9623 33.7806 47.5936 33.3258 47.5936C32.871 47.5936 32.5023 47.9624 32.5023 48.4171V50.6167H29.6471V49.929C29.6471 49.4742 29.2784 49.1055 28.8236 49.1055C28.3688 49.1055 28.0001 49.4743 28.0001 49.929V50.6167H25.1449V48.4171C25.1449 47.9623 24.7762 47.5936 24.3214 47.5936C23.8666 47.5936 23.4979 47.9624 23.4979 48.4171V50.6167H22.5443C21.885 50.6167 21.2478 50.5219 20.6436 50.3483V49.3814C20.6436 48.9267 20.2749 48.5579 19.8201 48.5579C19.3653 48.5579 18.9966 48.9267 18.9966 49.3814V49.6319C16.9915 48.4243 15.6473 46.2267 15.6473 43.7205V33.3161C17.2031 35.4408 19.7151 36.8234 22.5443 36.8234H23.4979V39.0231C23.4979 39.4779 23.8666 39.8466 24.3214 39.8466C24.7763 39.8466 25.1449 39.4778 25.1449 39.0231V36.8234H32.5023V39.0231C32.5023 39.4779 32.871 39.8466 33.3258 39.8466C33.7807 39.8466 34.1493 39.4778 34.1493 39.0231V36.8234H41.5059V39.0231C41.5059 39.4779 41.8746 39.8466 42.3294 39.8466C42.7842 39.8466 43.1529 39.4778 43.1529 39.0231V36.8234H46.1176V50.6167Z" fill="white"/>
<path d="M51.0589 41.4971C49.8328 41.4971 48.8353 42.4945 48.8353 43.7206C48.8353 44.9467 49.8327 45.9441 51.0589 45.9441C52.2849 45.9441 53.2824 44.9467 53.2824 43.7206C53.2824 42.4945 52.2849 41.4971 51.0589 41.4971ZM51.0589 44.297C50.741 44.297 50.4824 44.0384 50.4824 43.7206C50.4824 43.4028 50.741 43.1442 51.0589 43.1442C51.3767 43.1442 51.6353 43.4028 51.6353 43.7206C51.6353 44.0384 51.3767 44.297 51.0589 44.297Z" fill="white"/>
</svg>
