<svg width="70" height="70" viewBox="0 0 70 70" fill="none" xmlns="http://www.w3.org/2000/svg">
<rect width="70" height="70" rx="35" fill="black"/>
<path d="M56 18.1172H14V48.6466H39.8376V53.945L44.4297 51.7019L49.0219 53.945V48.6466H56V18.1172ZM44.4297 43.7228C42.1226 43.7228 40.2462 41.846 40.2462 39.5392C40.2462 37.2324 42.1226 35.3556 44.4297 35.3556C46.7366 35.3556 48.6133 37.2324 48.6133 39.5392C48.6133 41.846 46.7366 43.7228 44.4297 43.7228ZM44.4297 48.9632L42.2985 50.004V45.8309C42.9679 46.0584 43.6841 46.1837 44.4297 46.1837C45.1751 46.1837 45.8913 46.0584 46.561 45.8309V50.004L44.4297 48.9632ZM53.5391 46.1857H49.0219V44.3345C50.285 43.1242 51.0743 41.4227 51.0743 39.5392C51.0743 35.8754 48.0936 32.8947 44.4297 32.8947C40.7659 32.8947 37.7852 35.8754 37.7852 39.5392C37.7852 41.4227 38.5741 43.1245 39.8376 44.3345V46.1857H16.4609V20.5781H53.5391V46.1857Z" fill="white"/>
<path d="M18.9248 27.9688H51.0752V30.4297H18.9248V27.9688Z" fill="white"/>
<path d="M22.619 23.043H47.381V25.5039H22.619V23.043Z" fill="white"/>
<path d="M18.9248 41.26H30.8952V43.7209H18.9248V41.26Z" fill="white"/>
<path d="M18.9248 36.334H30.8952V38.7949H18.9248V36.334Z" fill="white"/>
</svg>
