<svg width="70" height="70" viewBox="0 0 70 70" fill="none" xmlns="http://www.w3.org/2000/svg">
<rect width="70" height="70" rx="35" fill="black"/>
<g clip-path="url(#clip0)">
<path d="M31.9591 28.4626C32.1747 28.4626 32.3865 28.3748 32.5391 28.2223C32.6916 28.0695 32.7794 27.858 32.7794 27.6423C32.7794 27.4264 32.6916 27.2149 32.5391 27.0623C32.3865 26.9098 32.1747 26.822 31.9591 26.822C31.7434 26.822 31.5316 26.9098 31.3791 27.0623C31.2266 27.2149 31.1388 27.4264 31.1388 27.6423C31.1388 27.858 31.2266 28.0695 31.3791 28.2223C31.5316 28.3748 31.7434 28.4626 31.9591 28.4626Z" fill="white"/>
<path d="M55.5607 40.3395L47.877 36.3116L55.4219 33.9798C55.7392 33.8817 55.9664 33.602 55.9965 33.271C56.0269 32.9403 55.8549 32.6237 55.5607 32.4696L40.283 24.461C40.0911 24.3603 39.8671 24.3398 39.6601 24.4036L34.8315 25.8949C34.3986 26.0285 34.156 26.4877 34.2896 26.9206C34.4235 27.3535 34.8827 27.5961 35.3156 27.4625L39.821 26.0711L53.0379 32.9996L45.491 35.332H45.4907L41.3183 36.6215C41.2357 36.6336 41.1549 36.6583 41.0783 36.6958L40.6454 36.8294C40.0449 37.0149 39.4406 37.178 38.8343 37.3203L37.1133 36.8166C34.9984 36.1975 33.2508 34.7924 32.192 32.8599C32.0594 32.6179 31.8143 32.4587 31.5393 32.4363C31.2641 32.4135 30.9962 32.5311 30.8264 32.7487C29.3149 34.6825 27.0401 35.7915 24.5852 35.7915H22.1711C21.5998 35.5409 21.0345 35.2705 20.4766 34.9779L16.9624 33.1358L29.0463 29.4017C29.4789 29.2681 29.7215 28.8086 29.5879 28.3757C29.4539 27.9428 28.9944 27.7006 28.5618 27.8342L14.5781 32.1552C14.2608 32.2533 14.0337 32.5333 14.0035 32.864C13.9731 33.1947 14.1452 33.5113 14.4393 33.6654L19.7146 36.4308C20.5475 36.8675 21.3966 37.2601 22.2605 37.609L14.5742 40.0264C14.258 40.1257 14.0327 40.4058 14.0032 40.7358C13.9737 41.0659 14.1458 41.3815 14.4393 41.5353L29.717 49.5439C29.8359 49.6061 29.9666 49.6378 30.098 49.6378C30.1794 49.6378 30.2611 49.626 30.3403 49.6013L55.4219 41.8497C55.7392 41.7516 55.9664 41.4719 55.9965 41.1409C56.0269 40.8099 55.8549 40.4936 55.5607 40.3395ZM47.6424 38.041L41.1357 44.5477L32.9544 47.0763L41.8592 38.1714L45.6541 36.9986L47.6424 38.041ZM21.1681 43.2102L25.6472 38.7312C27.0968 39.1112 28.5791 39.3753 30.0877 39.5211L24.5997 45.0091L21.1681 43.2102ZM32.2802 39.6489C32.4622 39.6524 32.6442 39.6553 32.8259 39.6553C34.794 39.6553 36.7483 39.448 38.6732 39.0369L29.915 47.7953L26.1221 45.807L32.2802 39.6489ZM31.3602 34.6203C32.3728 36.0536 33.7365 37.1774 35.3307 37.8993C32.3484 38.1903 29.353 37.9711 26.4515 37.2511C28.3119 36.8855 30.0144 35.9764 31.3602 34.6203ZM22.9443 39.1138L19.6461 42.4123L16.9499 40.9989L22.9443 39.1138ZM44.4935 43.5098L49.1648 38.8389L53.0379 40.8691L44.4935 43.5098Z" fill="white"/>
</g>
<defs>
<clipPath id="clip0">
<rect width="42" height="42" fill="white" transform="translate(14 16)"/>
</clipPath>
</defs>
</svg>
