<svg width="70" height="70" viewBox="0 0 70 70" fill="none" xmlns="http://www.w3.org/2000/svg">
<rect width="70" height="70" rx="35" fill="black"/>
<path d="M52.1019 20.6719C51.9053 20.5766 51.6753 20.5786 51.4803 20.6775L48.4636 22.2075L46.1028 18.1522C45.2947 16.6375 43.7145 15.6945 41.9978 15.7024H30.3314C28.5896 15.7066 26.9759 16.6186 26.0738 18.1088L23.904 21.635C23.7035 21.9608 23.8016 22.3872 24.1245 22.5925L31.8237 27.492C31.9358 27.5633 32.0659 27.6011 32.1988 27.6012C32.2569 27.6012 32.3147 27.5939 32.371 27.5795C32.5578 27.5321 32.7168 27.4098 32.8105 27.2414L35.7502 21.9521L38.9699 28.0414L36.0386 29.8003C35.7812 29.9546 35.6508 30.256 35.7145 30.5492C35.778 30.8424 36.0212 31.0625 36.3193 31.0966L46.7362 32.2808C46.7625 32.2836 46.7889 32.285 46.8153 32.285C47.0836 32.285 47.3283 32.1318 47.4453 31.8903L52.4266 21.607C52.5951 21.2591 52.4498 20.8404 52.1019 20.6719ZM31.9475 25.9115L25.4571 21.7819L27.2699 18.8366C27.9175 17.7634 29.078 17.1059 30.3314 17.1022H33.1731L34.9075 20.5843L31.9475 25.9115ZM46.4017 30.834L38.5289 29.9388L40.2584 28.9008C40.5768 28.7094 40.6902 28.3027 40.5167 27.9741L34.7682 17.1022H41.9978C43.2134 17.1005 44.3292 17.7748 44.8926 18.852L47.5859 23.4806C47.7729 23.8005 48.1767 23.9192 48.507 23.7515L50.2611 22.8626L46.4017 30.834Z" fill="white"/>
<path d="M55.3873 35.303L53.1251 30.7843C52.9524 30.4384 52.532 30.2982 52.1862 30.4709C52.1723 30.4778 52.1586 30.4852 52.1453 30.4931L43.7462 35.3926C43.417 35.5845 43.302 36.0045 43.4872 36.3375L46.4073 41.5995H39.898V38.7998C39.8982 38.4133 39.5848 38.0998 39.1983 38.0996C39.001 38.0995 38.8128 38.1827 38.6801 38.3288L31.6809 46.0279C31.4528 46.2789 31.4375 46.6573 31.6445 46.9259L38.6437 56.025C38.8797 56.3311 39.3192 56.3879 39.6254 56.152C39.7972 56.0195 39.8979 55.815 39.898 55.598V53.4982H44.7974C46.5233 53.5407 48.1201 52.5877 48.9018 51.0485L53.8013 42.6536L55.2571 40.3019C56.1988 38.781 56.2486 36.8708 55.3873 35.303ZM47.6846 50.3598C47.1453 51.4543 46.0172 52.1336 44.7974 52.0984H39.1981C38.8115 52.0984 38.4981 52.4118 38.4981 52.7983V53.5402L33.1087 46.5368L38.4981 40.6098V42.2994C38.4981 42.686 38.8115 42.9994 39.1981 42.9994H51.978L47.6846 50.3598ZM54.0637 39.5683L52.8039 41.5981H48.0087L45.0424 36.2598L52.2047 32.0805L54.147 35.9581C54.774 37.0881 54.7421 38.4685 54.0637 39.5683Z" fill="white"/>
<path d="M30.7346 36.4069L26.535 27.3079C26.4143 27.0449 26.1442 26.8832 25.8554 26.9013L14.6566 27.6012C14.2708 27.6252 13.9774 27.9573 14.0014 28.3431C14.0155 28.5695 14.1383 28.7751 14.3312 28.8947L14.3319 28.8961L17.7923 31.042L15.4825 35.6671C14.6453 37.1881 14.6501 39.0331 15.4951 40.5498L19.3902 47.2761L21.5201 50.9654C22.4348 52.5192 24.0965 53.4804 25.8995 53.4984H28.6992C29.0857 53.4984 29.3991 53.185 29.3991 52.7985V42.9995C29.3991 42.613 29.0857 42.2996 28.6992 42.2996H23.4701L26.9613 36.2418L29.8478 37.3532C30.2086 37.4919 30.6136 37.3119 30.7523 36.951C30.8201 36.7747 30.8137 36.5785 30.7346 36.4069ZM27.9993 43.6994V52.0985H25.8995C24.5952 52.0859 23.3928 51.3908 22.7309 50.2668L20.8097 46.938L22.7918 43.6994H27.9993ZM26.9053 34.7201C26.5837 34.5966 26.22 34.7254 26.0479 35.0239L19.9935 45.5284L16.7067 39.8499C16.1025 38.7459 16.1115 37.4082 16.7305 36.3124L19.3335 31.0952C19.4965 30.771 19.3847 30.376 19.0759 30.1853L16.9349 28.8611L25.4648 28.3298L28.7405 35.427L26.9053 34.7201Z" fill="white"/>
</svg>
