<svg width="70" height="70" viewBox="0 0 70 70" fill="none" xmlns="http://www.w3.org/2000/svg">
<rect width="70" height="70" rx="35" fill="black"/>
<g clip-path="url(#clip0)">
<path d="M50.2376 44.8C50.4599 43.6198 50.4542 42.408 50.2208 41.23L53.4268 33.4929C53.4271 33.4878 53.4271 33.4826 53.4268 33.4775C53.9463 32.0551 54.7077 30.7332 55.6773 29.5701C55.9186 29.3153 56.0156 28.9563 55.9356 28.6146L54.621 22.9376C54.6054 22.8783 54.5818 22.8213 54.551 22.7682C54.5454 22.7577 54.5433 22.7451 54.5377 22.7353C54.5321 22.7255 54.5076 22.7017 54.4936 22.6835C54.465 22.6416 54.4319 22.6028 54.3949 22.568C54.3706 22.5509 54.3451 22.5354 54.3186 22.5218C54.2845 22.4967 54.2482 22.4747 54.2101 22.456C54.1573 22.4361 54.1023 22.4227 54.0463 22.4161C54.0302 22.4161 54.0162 22.4056 54.0001 22.4042C53.8659 22.3953 53.732 22.4252 53.6144 22.4903C53.6039 22.4959 53.5913 22.498 53.5808 22.5043H53.5738L48.6311 25.5892C48.3318 25.7746 48.146 26.0983 48.1369 26.4502C47.9996 27.9616 47.6015 29.4378 46.9602 30.8133V30.821L45.3579 34.6941C44.5715 34.276 43.7296 33.972 42.8575 33.7911C43.1876 31.5126 43.309 29.2086 43.2201 26.908C44.5232 25.3446 45.1485 23.3259 44.9575 21.2996C44.52 17.22 40.8331 14.2737 40.6756 14.1498C40.4389 13.9634 40.1094 13.9494 39.8577 14.115C39.606 14.2806 39.4886 14.5887 39.5661 14.8799C39.9266 16.2337 39.6144 17.6624 36.9516 20.6003C35.7552 21.7555 35.376 23.5194 35.9919 25.0642C36.2274 25.6551 36.5648 26.2 36.9887 26.6742C36.8193 27.7557 36.6863 28.7798 36.5946 29.7773C36.4367 31.4271 36.396 33.0861 36.4728 34.7417C35.8483 35.0803 35.2637 35.4876 34.7298 35.9562L31.3348 21.4382C31.3348 21.4235 31.3208 21.413 31.3166 21.3997C31.3052 21.353 31.2888 21.3077 31.2676 21.2646L27.7998 14.8603C27.4527 14.2193 26.7196 13.8899 26.0099 14.0561C25.3001 14.2224 24.7895 14.8431 24.7632 15.5715L24.5 22.848C24.5002 22.9005 24.506 22.9529 24.5175 23.0041C24.5175 23.0153 24.5175 23.0251 24.5175 23.0356L27.9811 37.8175C27.4347 37.8416 26.8923 37.9226 26.3627 38.059L22.5526 28.8575C22.2471 28.1541 21.4367 27.8222 20.7256 28.1092L14.9023 30.52C14.1896 30.8175 13.8509 31.6347 14.1442 32.3491L19.3116 44.8147C16.283 44.9737 13.9322 47.5161 14.0104 50.5478C14.0885 53.5795 16.5673 55.9973 19.6 56H50.4C52.4007 55.971 54.2339 54.8768 55.2091 53.1297C56.1844 51.3825 56.1534 49.2478 55.1279 47.5297C54.1025 45.8115 52.2383 44.771 50.2376 44.8ZM49.5243 26.6812L52.4587 24.85L51.4199 27.3588C51.2718 27.716 51.4414 28.1256 51.7986 28.2737C52.1558 28.4218 52.5654 28.2522 52.7135 27.895L53.7523 25.3862L54.53 28.7553C53.6979 29.7704 53.0144 30.8987 52.5 32.1062C51.7702 32.4445 50.9321 32.4621 50.1888 32.1546C49.4455 31.8472 48.8646 31.2428 48.587 30.4878C49.0786 29.2699 49.3942 27.9881 49.5243 26.6812ZM47.9143 32.1769C48.3774 32.7431 48.9784 33.1806 49.6594 33.4474C50.2008 33.6803 50.783 33.803 51.3723 33.8086C51.5141 33.8081 51.6557 33.7994 51.7965 33.7827L49.5628 39.1727C48.894 37.698 47.8593 36.4188 46.557 35.4564L47.9143 32.1769ZM38.3243 27.1775L41.8411 27.3924C41.8628 28.0462 41.8551 28.7224 41.8334 29.4091C40.6618 29.4928 39.4844 29.4359 38.3264 29.2397C38.2382 29.2271 38.1521 29.2173 38.0646 29.2054C38.1346 28.546 38.22 27.8782 38.3229 27.1775H38.3243ZM37.9904 21.5404C39.8489 19.4901 40.8121 17.913 41.0361 16.4304C42.372 17.8049 43.2538 19.5563 43.5624 21.448C43.7094 23.0948 43.2002 24.7331 42.1456 26.0064C40.7629 25.9224 39.3953 25.8384 38.0429 25.7544C37.4618 25.2112 37.1275 24.4543 37.1173 23.6589C37.1072 22.8635 37.422 22.0983 37.989 21.5404H37.9904ZM37.9372 30.6005L38.1402 30.6271C39.0422 30.7666 39.9527 30.844 40.8653 30.8588C41.1551 30.8588 41.4603 30.8357 41.7662 30.8119C41.7025 31.7128 41.5982 32.6536 41.4659 33.6259C41.293 33.6168 41.1236 33.6 40.95 33.6C39.8932 33.6019 38.8442 33.7825 37.8476 34.1341C37.8153 32.9555 37.8448 31.776 37.9358 30.6005H37.9372ZM32.5227 38.7863L30.52 30.2554C30.4264 29.8853 30.0535 29.6585 29.6817 29.7455C29.31 29.8326 29.0766 30.2014 29.1571 30.5746L30.9568 38.2529C30.462 38.0759 29.9508 37.9486 29.4308 37.8728L26.3585 24.7618C26.7889 24.9578 27.2562 25.0594 27.7291 25.06C27.7732 25.06 27.8201 25.0537 27.8649 25.0516L28.3598 27.1649C28.4131 27.4123 28.5958 27.6116 28.8376 27.6862C29.0794 27.7609 29.3426 27.6992 29.5261 27.525C29.7096 27.3507 29.7848 27.091 29.7227 26.8457L29.2271 24.731C29.702 24.5208 30.1209 24.2019 30.45 23.8L33.5734 37.1553C33.1678 37.6612 32.8157 38.2078 32.5227 38.7863ZM28.2457 23.5963C27.3505 23.7699 26.4364 23.4039 25.9084 22.6604L25.9973 20.195C26.2409 20.2405 26.488 20.2639 26.7358 20.265C26.9751 20.266 27.2137 20.2395 27.447 20.1859C27.9192 20.0619 28.3609 19.8422 28.7448 19.5405L29.9236 21.7161C29.7831 22.6188 29.1264 23.3552 28.2457 23.5977V23.5963ZM26.3284 15.4189C26.4237 15.3968 26.5222 15.4409 26.5692 15.5267L28.07 18.3022C27.7993 18.5471 27.476 18.7267 27.125 18.8272C26.7663 18.8931 26.3972 18.8756 26.0463 18.7761L26.1604 15.6219C26.1642 15.5241 26.233 15.4409 26.3284 15.4189ZM21.2625 29.4L21.7973 30.6922L19.2073 31.7646C18.9002 31.8936 18.7265 32.221 18.792 32.5475C18.8574 32.874 19.1438 33.1093 19.4768 33.11C19.5688 33.1098 19.6598 33.0917 19.7449 33.0568L22.3349 31.9837L22.8704 33.2773L21.5747 33.8142C21.2659 33.942 21.0905 34.2703 21.1559 34.598C21.2213 34.9258 21.5093 35.1615 21.8435 35.161C21.9352 35.1607 22.026 35.1426 22.1109 35.1078L23.4066 34.5709L23.9421 35.8645L21.35 36.939C21.0412 37.0668 20.8658 37.3951 20.9312 37.7228C20.9966 38.0506 21.2846 38.2863 21.6188 38.2858C21.7105 38.2856 21.8013 38.2675 21.8862 38.2326L24.4762 37.1602L25.0425 38.5273C22.7615 39.5685 21.0888 41.6043 20.51 44.044L15.4364 31.8108L21.2625 29.4ZM50.4 54.6H19.6C17.2804 54.6 15.4 52.7196 15.4 50.4C15.4 48.0804 17.2804 46.2 19.6 46.2C20.0056 46.1987 20.4092 46.2572 20.7977 46.3736C21.0076 46.437 21.2351 46.3984 21.4123 46.2693C21.5895 46.1402 21.696 45.9355 21.7 45.7163C21.7498 43.2216 23.192 40.9646 25.4349 39.8713C27.6779 38.778 30.3442 39.0324 32.34 40.53C32.5164 40.6613 32.7442 40.7021 32.9551 40.6401C33.1661 40.5782 33.3357 40.4208 33.4131 40.215C34.7807 36.5702 38.5605 34.4263 42.3905 35.1229C46.2206 35.8196 49.0034 39.1571 49 43.05C49.0014 43.8506 48.8822 44.6467 48.6465 45.4118C48.5729 45.6498 48.6314 45.909 48.8001 46.0924C48.9688 46.2758 49.2222 46.3557 49.4655 46.3022C49.7724 46.2347 50.0857 46.2004 50.4 46.2C52.7196 46.2 54.6 48.0804 54.6 50.4C54.6 52.7196 52.7196 54.6 50.4 54.6Z" fill="white"/>
<path d="M41.0795 24.9899C41.2992 24.9908 41.5066 24.8884 41.6395 24.7134C42.5134 23.5306 42.8511 22.0355 42.5705 20.5918C42.5108 20.345 42.3221 20.1499 42.0774 20.0819C41.8327 20.014 41.5704 20.0839 41.392 20.2646C41.2135 20.4454 41.147 20.7085 41.2181 20.9523C41.3857 21.9782 41.1356 23.0284 40.5237 23.8685C40.3646 24.0807 40.339 24.3644 40.4576 24.6016C40.5762 24.8387 40.8186 24.9885 41.0837 24.9885L41.0795 24.9899Z" fill="white"/>
<path d="M40.159 46.2001C39.6385 46.2017 39.1251 46.3214 38.6575 46.5501C37.3982 44.827 35.047 44.3222 33.1914 45.3766C31.3359 46.4311 30.5662 48.7094 31.402 50.6731C31.512 50.9312 31.7654 51.0987 32.046 51.0987C32.1403 51.0989 32.2337 51.0799 32.3204 51.0427C32.4912 50.9699 32.6261 50.8323 32.6954 50.6601C32.7647 50.4878 32.7628 50.2951 32.69 50.1243C32.5376 49.7691 32.459 49.3866 32.459 49.0001C32.459 47.4537 33.7126 46.2001 35.259 46.2001C36.3451 46.1947 37.3342 46.824 37.7895 47.8101C37.8046 47.8329 37.821 47.8549 37.8385 47.8759C37.8495 47.8999 37.8619 47.9233 37.8756 47.9459C37.8882 47.9613 37.9064 47.9683 37.9204 47.983C37.9532 48.0171 37.9896 48.0476 38.0289 48.074C38.0639 48.1009 38.1014 48.1244 38.1409 48.144C38.1815 48.161 38.2237 48.1742 38.2669 48.1832C38.3099 48.1945 38.354 48.2013 38.3985 48.2035C38.4894 48.2028 38.5797 48.1876 38.6659 48.1587C38.6845 48.1553 38.703 48.1508 38.7212 48.1454C38.7439 48.1307 38.7656 48.1146 38.7863 48.0971C38.8115 48.0859 38.836 48.0733 38.8598 48.0593C39.2275 47.7619 39.6861 47.5998 40.159 47.6001C40.9775 47.6014 41.7206 48.0782 42.063 48.8216C42.2234 49.1734 42.6387 49.3285 42.9905 49.1681C43.3423 49.0077 43.4974 48.5924 43.337 48.2406C42.767 46.9982 41.5259 46.2013 40.159 46.2001Z" fill="white"/>
<path d="M26.3788 41.3359C26.2731 41.3702 23.8 42.2256 23.8 44.8002C23.8 45.1868 24.1134 45.5002 24.5 45.5002C24.8866 45.5002 25.2 45.1868 25.2 44.8002C25.2571 43.8237 25.8996 42.9789 26.8254 42.6631C27.1927 42.5397 27.3904 42.142 27.2671 41.7748C27.1438 41.4075 26.7461 41.2097 26.3788 41.3331V41.3359Z" fill="white"/>
<path d="M36.2299 40.5791C36.2855 40.5933 36.3426 40.6003 36.4 40.6001C36.7208 40.5998 37.0003 40.3814 37.0783 40.0702C37.4005 38.7631 38.5576 37.8333 39.9035 37.8001C40.2901 37.7992 40.6027 37.485 40.6017 37.0984C40.6008 36.7118 40.2866 36.3992 39.9 36.4001C37.9104 36.4266 36.191 37.7966 35.721 39.73C35.627 40.105 35.8549 40.4852 36.2299 40.5791Z" fill="white"/>
</g>
<defs>
<clipPath id="clip0">
<rect width="42" height="42" fill="white" transform="translate(14 14)"/>
</clipPath>
</defs>
</svg>
