<svg width="19" height="19" viewBox="0 0 19 19" fill="none" xmlns="http://www.w3.org/2000/svg">
<g clip-path="url(#clip0)">
<path d="M17.0905 16.4672L15.9972 4.14531C15.9775 3.90147 15.773 3.71662 15.5252 3.71662H13.2205C13.2166 1.66756 11.549 0 9.49998 0C7.45092 0 5.78336 1.66756 5.77943 3.71662H3.47473C3.23089 3.71662 3.02638 3.90147 3.00278 4.14531L1.90942 16.4672C1.90942 16.4829 1.90942 16.4947 1.90942 16.5105C1.90942 17.883 3.17189 19 4.72147 19H14.2785C15.8281 19 17.0905 17.883 17.0905 16.5105C17.0905 16.4947 17.0905 16.4829 17.0905 16.4672ZM9.49998 0.943904C11.0299 0.943904 12.2727 2.18671 12.2766 3.71662H6.72333C6.72726 2.18671 7.97007 0.943904 9.49998 0.943904ZM14.2785 18.0522H4.72147C3.69891 18.0522 2.86513 17.3718 2.85333 16.5262L3.90735 4.66053H5.77943V6.31629C5.77943 6.57586 5.9918 6.78824 6.25138 6.78824C6.51095 6.78824 6.72333 6.57586 6.72333 6.31629V4.66053H12.2766V6.31629C12.2766 6.57586 12.489 6.78824 12.7486 6.78824C13.0082 6.78824 13.2205 6.57586 13.2205 6.31629V4.66053H15.0926L16.1466 16.5301C16.1348 17.3718 15.301 18.0522 14.2785 18.0522Z" fill="black"/>
</g>
<defs>
<clipPath id="clip0">
<rect width="19" height="19" fill="white"/>
</clipPath>
</defs>
</svg>
