<svg width="298" height="74" viewBox="0 0 298 74" fill="none" xmlns="http://www.w3.org/2000/svg">
<g clip-path="url(#clip0)">
<path d="M88.3898 35.7314L87.9689 36.5771C85.8644 41.0171 84.3913 44.4 83.5494 46.3029C82.4972 49.2629 81.8658 51.1657 81.6554 51.5886C81.2345 53.0686 80.6031 53.7029 79.9718 53.7029C79.5509 53.7029 79.13 53.4914 78.7091 53.0686C78.4986 52.6457 78.2881 52.2229 78.2881 51.8C78.2881 49.8971 80.6031 44.4 85.2331 34.6743C84.3913 34.04 83.9704 33.4057 83.9704 32.7714C83.9704 32.3486 84.1808 31.9257 84.6017 31.5029C85.0226 31.2914 85.2331 31.08 85.654 31.08C85.8644 31.08 86.2853 31.08 86.9167 31.2914C90.2839 24.7371 92.3884 20.72 92.8093 18.8171C92.3884 19.0286 91.5466 19.4514 90.9153 20.0857C90.4944 20.2971 90.0735 20.5086 89.6525 20.5086C89.2316 20.5086 89.0212 20.2971 88.6003 19.8743C88.3898 19.6629 88.3898 19.4514 88.3898 19.24C88.3898 18.1829 89.2317 17.1257 90.9153 16.0686C92.178 15.2229 93.4407 14.3771 94.7034 13.7429C94.7034 13.32 94.9138 12.8971 94.9138 12.6857C95.1243 11.84 95.3348 11.4171 95.5452 10.9943C95.7557 10.7829 96.1766 10.5714 96.5975 10.5714C97.6497 10.5714 98.0706 11.2057 98.0706 12.2629C99.5438 11.84 100.807 11.6286 101.859 11.4171C102.911 11.2057 103.963 10.9943 104.595 10.9943C106.699 10.9943 108.383 11.84 109.645 13.32C110.908 14.8 111.54 16.4914 111.54 18.1829C111.54 21.3543 110.277 24.5257 107.541 27.6971C105.226 30.4457 102.49 32.56 99.1229 34.04C96.1766 35.3086 93.4407 35.9429 90.4944 35.9429C90.2839 35.9429 89.4421 35.9429 88.3898 35.7314ZM97.0184 16.4914C96.387 18.6057 95.1243 21.1429 93.6511 24.5257C91.7571 28.5429 90.4944 31.08 89.863 32.3486C90.9153 32.56 91.7571 32.56 92.178 32.56C94.4929 32.56 97.2288 31.5029 100.386 29.6C103.542 27.6971 105.857 25.3714 107.541 22.6229C109.014 20.9314 109.435 19.4514 109.435 18.1829C109.435 16.9143 109.014 16.0686 108.172 15.4343C107.331 14.8 106.068 14.5886 104.595 14.5886C103.332 14.5886 102.069 14.8 100.807 15.0114C99.5438 15.4343 98.2811 15.8571 97.0184 16.4914ZM106.489 44.6114V45.2457C106.489 45.6686 106.699 46.0914 106.91 46.5143C107.331 47.36 108.383 47.5714 109.435 47.5714C111.96 47.5714 115.117 45.6686 118.484 41.6514C119.116 41.0171 119.537 40.5943 119.958 40.5943C120.168 40.5943 120.379 40.8057 120.589 41.0171C120.799 41.2286 120.799 41.44 120.799 41.44C120.799 42.2857 119.747 43.5543 117.853 45.6686C116.38 47.1486 114.696 48.4171 112.802 49.4743C111.119 50.1086 109.435 50.7429 107.962 50.7429C106.489 50.7429 105.226 50.1086 104.174 49.0514C103.542 48.2057 103.332 47.36 103.332 45.88C103.332 42.2857 105.016 38.9029 108.383 35.52C111.119 32.7714 113.434 31.2914 115.328 31.2914C115.959 31.2914 116.38 31.5029 116.801 31.7143C117.432 32.1371 117.643 32.7714 117.643 33.4057C117.643 34.4629 117.222 35.9429 116.17 37.4229C113.855 41.0171 110.698 43.3429 106.489 44.6114ZM107.331 42.2857C108.804 41.8629 109.856 41.2286 110.698 40.5943C112.171 39.5371 113.223 38.2686 114.275 36.7886C114.486 36.3657 114.696 35.7314 114.696 35.52C114.696 35.0971 114.486 34.8857 114.065 34.8857C113.434 34.8857 112.802 35.3086 111.75 36.1543C109.856 37.4229 108.383 39.5371 107.331 42.2857ZM127.323 40.3829C129.428 38.2686 131.743 35.9429 134.479 34.04C135.531 33.1943 136.373 32.56 137.636 31.9257C138.267 31.5029 138.477 31.5029 138.688 31.5029C138.898 31.5029 139.319 31.7143 139.53 32.1371C139.74 32.3486 139.74 32.56 139.74 32.7714C139.74 33.1943 139.319 33.6171 138.477 34.2514C136.373 35.9429 135.321 37.2114 135.321 38.0571C135.321 38.48 135.531 38.6914 136.162 38.6914C137.004 38.6914 138.688 38.0571 140.792 36.3657C141.213 36.1543 141.424 35.9429 141.634 35.9429C141.845 35.9429 142.055 35.9429 142.055 36.1543C142.266 36.3657 142.266 36.5771 142.266 36.7886C142.266 37.4229 141.424 38.2686 139.74 39.7486C137.846 41.0171 136.162 41.8629 134.479 41.8629C133.847 41.8629 133.216 41.6514 132.585 41.2286C132.164 41.0171 131.953 40.3829 131.953 39.7486C131.953 39.3257 132.164 38.6914 132.585 38.0571C130.901 39.3257 129.007 41.2286 126.692 43.9771C125.429 45.6686 124.167 47.9943 122.904 50.5314C122.483 51.5886 121.852 52.0114 121.22 52.0114C120.379 52.0114 119.958 51.5886 119.958 50.9543C119.958 50.32 120.589 48.4171 121.852 45.2457C123.746 40.5943 125.429 37 127.534 34.4629C128.797 32.9829 129.849 32.1371 130.48 32.1371C130.691 32.1371 130.901 32.1371 131.322 32.3486C131.533 32.56 131.743 32.7714 131.743 33.1943C131.743 33.6171 131.532 34.04 131.112 34.4629C131.112 34.4629 130.48 35.3086 129.428 36.5771C128.586 37.8457 127.955 39.1143 127.323 40.3829ZM155.524 29.8114C156.787 29.8114 157.839 30.0229 158.47 30.4457C159.102 30.8686 159.523 31.5029 159.523 32.56C159.523 33.8286 159.102 34.8857 158.049 36.1543C157.208 37.2114 155.945 38.0571 154.051 38.6914C152.999 39.1143 152.367 39.3257 151.736 39.3257C150.894 39.3257 150.473 38.9029 150.473 38.0571C150.473 37.6343 150.684 37.2114 151.315 36.7886C151.525 36.7886 152.157 36.5771 153.42 36.1543C154.261 35.9429 154.893 35.52 155.524 35.0971C156.155 34.6743 156.366 34.04 156.366 33.6171C156.366 33.1943 156.155 32.7714 155.945 32.56C155.734 32.3486 155.314 32.3486 154.893 32.3486C153.63 32.3486 152.367 32.7714 150.894 33.8286C149.21 34.8857 148.369 36.1543 148.369 37.8457C148.369 38.9029 149 40.3829 150.052 41.8629C151.315 43.5543 151.946 45.0343 151.946 46.3029C151.946 48.2057 151.105 49.4743 149.421 50.5314C148.369 51.1657 147.316 51.5886 146.054 51.5886C143.949 51.5886 142.476 50.9543 141.424 49.4743C140.792 48.4171 140.371 47.1486 140.371 45.88C140.371 44.1886 140.792 42.92 141.634 41.8629C142.266 41.2286 142.686 40.8057 143.318 40.8057C143.739 40.8057 144.16 41.0171 144.16 41.44C144.16 41.6514 144.16 41.8629 143.949 42.2857C143.528 43.1314 143.318 44.1886 143.318 45.4571C143.318 46.5143 143.739 47.36 144.37 47.9943C145.001 48.6286 145.843 48.84 146.685 48.84C147.527 48.84 148.158 48.6286 148.579 47.9943C149 47.5714 149.21 46.9371 149.21 46.3029C149.21 45.4571 148.79 44.1886 147.737 42.92C146.264 41.0171 145.633 39.3257 145.633 37.6343C145.633 35.52 146.685 33.6171 149 32.1371C150.684 30.6571 152.999 29.8114 155.524 29.8114ZM169.624 30.4457C171.308 30.4457 172.15 31.5029 172.15 33.6171C172.15 36.3657 170.887 39.96 168.362 44.1886C165.626 48.84 162.89 51.1657 160.364 51.1657C159.102 51.1657 158.26 50.5314 157.629 49.4743C157.418 48.84 157.208 48.2057 157.208 47.36C157.208 44.6114 158.049 41.8629 159.944 38.6914C161.627 35.7314 163.732 33.6171 166.047 31.9257C167.099 30.8686 168.362 30.4457 169.624 30.4457ZM166.257 42.2857C165.836 41.8629 165.415 41.6514 165.415 41.2286C165.415 41.0171 165.836 40.5943 166.468 39.96C168.362 37.8457 169.203 36.1543 169.203 34.8857C169.203 34.6743 169.203 34.4629 168.993 34.4629C168.993 34.04 168.783 33.8286 168.362 33.8286C167.73 33.8286 166.678 34.4629 165.415 35.7314C163.732 37.4229 162.469 39.1143 161.627 40.8057C160.575 42.92 160.154 44.6114 160.154 45.88C160.154 46.3029 160.154 46.5143 160.364 46.7257C160.575 47.1486 160.996 47.36 161.417 47.36C162.469 47.36 163.521 46.5143 164.573 45.0343C164.994 44.4 165.415 43.7657 165.836 43.1314C166.257 42.7086 166.257 42.2857 166.257 42.2857ZM178.042 39.96C178.253 39.7486 178.674 39.5371 178.884 39.1143C183.304 34.8857 186.25 32.7714 187.723 32.7714C188.565 32.7714 188.986 33.1943 188.986 34.04C188.986 34.6743 188.565 35.3086 187.934 36.3657C183.935 41.0171 182.041 45.0343 182.041 48.6286C182.041 49.6857 182.251 50.9543 182.883 52.0114C183.093 52.4343 183.093 52.8571 183.093 53.0686C183.093 53.28 182.883 53.4914 182.672 53.7029C182.462 53.9143 182.041 54.1257 181.62 54.1257C180.778 54.1257 180.147 53.4914 179.516 52.4343C178.884 51.3771 178.674 50.1086 178.674 48.6286C178.674 45.88 179.726 42.7086 181.831 39.3257C179.095 41.2286 176.359 44.4 173.833 49.0514C173.202 50.1086 172.571 50.7429 171.939 50.7429C171.518 50.7429 171.308 50.5314 171.097 50.32C170.887 50.1086 170.677 49.6857 170.677 49.2629C170.677 48.2057 171.939 45.2457 174.465 40.3829C175.938 37.8457 176.99 35.9429 177.621 34.6743C178.463 33.6171 179.095 32.9829 179.726 32.9829C179.936 32.9829 180.357 33.1943 180.568 33.4057C180.778 33.6171 180.989 34.04 180.989 34.4629C180.989 34.8857 180.778 35.52 180.147 36.3657C179.305 37.6343 178.674 38.9029 178.042 39.96ZM197.825 45.4571C197.194 46.7257 196.562 47.7829 195.72 48.6286C194.458 50.32 193.195 51.1657 191.722 51.1657C190.67 51.1657 189.617 50.5314 189.196 49.4743C188.775 48.84 188.565 47.9943 188.565 46.9371C188.565 44.6114 189.196 42.0743 190.67 39.3257C192.353 36.1543 194.247 33.8286 196.562 32.1371C198.035 31.08 199.508 30.4457 200.982 30.4457C201.823 30.4457 202.665 30.6571 203.086 31.2914C203.507 31.7143 203.928 32.3486 203.928 32.9829C203.928 33.4057 203.718 34.04 203.507 34.8857C203.718 35.3086 203.928 35.7314 203.928 35.9429C203.928 36.3657 203.718 37.2114 203.086 38.0571C202.455 39.1143 201.823 40.3829 201.192 42.0743C200.561 43.9771 200.14 45.2457 200.14 46.5143C200.14 47.36 200.35 48.2057 200.982 48.6286C201.192 48.84 201.613 49.0514 202.244 49.2629C202.665 49.4743 203.086 49.8971 203.086 50.5314C203.086 50.9543 202.876 51.1657 202.665 51.5886C202.455 51.8 202.034 52.0114 201.613 52.0114C200.561 52.0114 199.508 51.5886 198.667 50.5314C198.035 49.6857 197.614 48.6286 197.614 47.36C197.825 47.1486 197.825 46.5143 197.825 45.4571ZM201.823 35.0971C201.613 34.6743 201.403 34.2514 200.982 34.04C200.771 33.8286 200.35 33.6171 200.14 33.6171C198.456 33.6171 196.773 35.0971 194.879 37.8457C192.774 41.0171 191.722 43.5543 191.722 45.6686C191.722 46.0914 191.722 46.5143 191.932 46.9371C192.143 47.1486 192.353 47.36 192.774 47.36C193.826 47.36 194.879 46.3029 196.352 44.1886C197.194 42.92 198.035 41.2286 199.088 39.1143C199.719 37.6343 200.35 36.5771 200.771 36.1543C201.192 35.9429 201.403 35.52 201.823 35.0971ZM238.442 40.8057C239.073 39.7486 240.757 37.4229 243.072 33.6171C245.177 30.4457 248.333 25.7943 252.963 19.8743C255.489 16.28 258.014 13.5314 260.119 10.9943C261.381 9.51429 262.434 8.88 263.486 8.88C264.117 8.88 264.538 9.09143 264.959 9.51429C265.38 9.93715 265.38 10.1486 265.38 10.7829C265.38 11.4171 264.959 12.6857 264.117 14.1657C263.907 14.5886 263.065 16.0686 261.592 18.8171C258.856 23.68 256.962 27.2743 255.91 29.3886C253.174 35.0971 251.28 39.96 250.017 43.9771C249.386 46.3029 248.965 48.2057 248.965 49.2629C248.965 49.4743 248.965 49.6857 248.965 50.1086C249.175 50.9543 249.175 51.3771 249.175 51.5886C249.175 52.2229 248.965 52.8571 248.544 53.28C248.123 53.7029 247.702 53.9143 247.281 53.9143C246.65 53.9143 246.229 53.4914 245.808 52.8571C245.597 52.4343 245.387 51.5886 245.387 50.7429C245.387 44.8229 250.227 33.1943 260.119 15.8571C255.068 21.3543 249.386 29.1771 243.072 39.5371C241.599 41.8629 240.547 43.3429 239.705 44.1886C238.863 45.0343 238.021 45.2457 237.179 45.2457C236.338 45.2457 235.706 44.8229 235.496 44.1886C235.285 43.7657 235.075 43.1314 235.075 42.4971C235.075 37.2114 238.232 28.9657 244.335 17.76C242.23 19.8743 240.126 22.4114 238.232 25.16C234.654 30.4457 231.497 35.7314 228.761 41.2286C227.499 43.9771 225.815 47.36 223.921 51.8C223.079 54.1257 221.816 55.1829 220.764 55.1829C220.343 55.1829 220.133 54.9714 219.922 54.76C219.712 54.5486 219.712 54.3371 219.712 54.1257C219.712 53.7029 220.133 52.6457 220.764 50.9543C222.448 47.1486 223.71 44.1886 224.552 42.4971C228.972 33.8286 234.233 25.5829 240.336 17.76C242.862 14.5886 244.756 12.4743 245.597 11.4171C246.65 10.36 247.492 9.93715 248.123 9.93715C248.544 9.93715 248.965 10.1486 249.386 10.5714C249.807 10.9943 250.017 11.4171 250.017 12.0514C250.017 12.6857 249.596 13.7429 248.754 15.2229C246.229 19.24 243.914 23.8914 241.809 28.9657C240.126 33.8286 238.863 37.6343 238.442 40.8057ZM265.801 31.9257C266.222 31.9257 266.432 32.1371 266.643 32.3486C266.853 32.56 266.853 32.7714 266.853 32.9829C266.853 33.4057 266.643 34.04 266.011 34.8857C263.907 38.2686 262.223 41.0171 261.381 43.1314C260.329 45.4571 259.487 47.5714 258.856 50.1086C258.435 51.1657 258.014 51.5886 257.383 51.5886C256.962 51.5886 256.541 51.3771 256.331 51.1657C256.12 50.9543 255.91 50.5314 255.91 50.32C255.91 49.6857 256.541 47.5714 257.804 43.9771C258.856 41.2286 260.54 38.0571 262.855 34.6743C263.696 33.6171 264.117 32.7714 264.538 32.3486C264.959 32.1371 265.38 31.9257 265.801 31.9257ZM271.694 20.2971C272.535 20.2971 273.167 20.72 273.167 21.7771C273.167 22.6229 272.746 23.68 271.694 24.7371C270.852 25.7943 270.01 26.2171 269.168 26.2171C268.747 26.2171 268.537 26.0057 268.116 25.7943C267.905 25.5829 267.695 25.16 267.695 24.7371C267.695 23.68 268.326 22.6229 269.379 21.5657C270.22 20.72 271.062 20.2971 271.694 20.2971ZM271.694 39.96C271.904 39.7486 272.325 39.5371 272.535 39.1143C276.955 34.8857 279.901 32.7714 281.374 32.7714C282.216 32.7714 282.637 33.1943 282.637 34.04C282.637 34.6743 282.216 35.3086 281.585 36.3657C277.586 41.0171 275.692 45.0343 275.692 48.6286C275.692 49.6857 275.903 50.9543 276.534 52.0114C276.744 52.4343 276.955 52.8571 276.955 53.0686C276.955 53.28 276.744 53.4914 276.534 53.7029C276.323 53.9143 275.903 54.1257 275.482 54.1257C274.64 54.1257 274.008 53.4914 273.377 52.4343C272.746 51.3771 272.535 50.1086 272.535 48.6286C272.535 45.88 273.588 42.7086 275.692 39.3257C272.956 41.2286 270.22 44.4 267.695 49.0514C267.064 50.1086 266.432 50.7429 265.801 50.7429C265.38 50.7429 265.17 50.5314 264.959 50.32C264.749 50.1086 264.538 49.6857 264.538 49.2629C264.538 48.2057 265.801 45.2457 268.326 40.3829C269.799 37.8457 270.852 35.9429 271.483 34.6743C272.325 33.6171 272.956 32.9829 273.588 32.9829C273.798 32.9829 274.219 33.1943 274.429 33.4057C274.64 33.6171 274.85 34.04 274.85 34.4629C274.85 34.8857 274.64 35.52 274.008 36.3657C272.956 37.6343 272.325 38.9029 271.694 39.96ZM290.634 31.9257C291.055 31.9257 291.266 32.1371 291.476 32.3486C291.686 32.56 291.686 32.7714 291.686 32.9829C291.686 33.4057 291.476 34.04 290.845 34.8857C288.74 38.2686 287.057 41.0171 286.215 43.1314C285.162 45.4571 284.321 47.5714 283.689 50.1086C283.268 51.1657 282.847 51.5886 282.216 51.5886C281.795 51.5886 281.374 51.3771 281.164 51.1657C280.953 50.9543 280.743 50.5314 280.743 50.32C280.743 49.6857 281.374 47.5714 282.637 43.9771C283.689 41.2286 285.373 38.0571 287.688 34.6743C288.53 33.6171 288.951 32.7714 289.371 32.3486C289.792 32.1371 290.213 31.9257 290.634 31.9257ZM296.527 20.2971C297.369 20.2971 298 20.72 298 21.7771C298 22.6229 297.579 23.68 296.527 24.7371C295.685 25.7943 294.843 26.2171 294.001 26.2171C293.581 26.2171 293.37 26.0057 292.949 25.7943C292.739 25.5829 292.528 25.16 292.528 24.7371C292.528 23.68 293.16 22.6229 294.212 21.5657C295.264 20.72 295.895 20.2971 296.527 20.2971Z" fill="black"/>
<path d="M65.0297 4.44V69.7714C43.3531 69.7714 21.6766 69.7714 0 69.7714V4.44C21.6766 4.44 43.3531 4.44 65.0297 4.44Z" fill="black"/>
<path d="M16.8362 32.7714L16.2048 34.04C13.2585 39.96 11.3644 44.1886 10.5226 46.7257C9.04945 50.7429 8.20764 53.0686 7.99719 53.7029C7.36584 55.6057 6.73448 56.4514 5.68222 56.4514C5.05086 56.4514 4.41951 56.24 3.9986 55.6057C3.5777 55.1829 3.36725 54.5486 3.36725 53.9143C3.36725 51.5886 6.31358 44.1886 12.4167 31.5029C11.3644 30.6571 10.7331 29.8114 10.7331 28.9657C10.7331 28.3314 10.9435 27.6971 11.5749 27.2743C11.9958 26.8514 12.6271 26.64 13.048 26.64C13.4689 26.64 13.8898 26.64 14.5212 26.8514C18.9407 18.3943 21.6766 12.8971 22.3079 10.5714C21.887 11.2057 21.0452 11.84 19.993 12.4743C19.3616 12.8971 18.7302 13.1086 18.3093 13.1086C17.8884 13.1086 17.2571 12.6857 17.0466 12.2629C16.8362 11.84 16.6257 11.4171 16.6257 11.2057C16.6257 9.93714 17.678 8.45714 19.993 6.97714C21.6766 5.70857 23.3602 4.86286 25.0438 4.01714C25.2542 3.38286 25.4647 2.96 25.4647 2.74857C25.6752 1.69143 26.0961 1.05714 26.3065 0.634286C26.517 0.211429 27.1483 0 27.7797 0C29.0424 0 29.6737 0.634286 29.6737 2.11429C31.5678 1.48 33.2514 1.05714 34.7246 0.845714C36.1978 0.634286 37.4605 0.422857 38.5127 0.422857C41.2486 0.422857 43.3531 1.48 45.2472 3.38286C46.9308 5.28571 47.7726 7.4 47.7726 9.93714C47.7726 14.1657 46.089 18.1829 42.5113 22.4114C39.565 26.0057 35.9873 28.7543 31.5678 30.6571C27.7797 32.3486 23.9915 33.1943 20.2034 33.1943C19.1511 33.1943 18.0989 33.1943 16.8362 32.7714ZM28.2006 7.61143C27.3588 10.36 25.8856 13.7429 23.7811 18.1829C21.2557 23.2571 19.5721 26.64 18.9407 28.3314C20.4139 28.5429 21.4661 28.7543 22.0975 28.7543C25.2543 28.7543 28.8319 27.4857 33.041 24.9486C37.0396 22.4114 40.1963 19.4514 42.5113 15.6457C43.9845 13.32 44.6158 11.4171 44.6158 9.72571C44.6158 8.24571 43.9845 6.97714 42.9322 6.13143C41.88 5.28571 40.1963 4.86286 38.0918 4.86286C36.4082 4.86286 34.935 5.07429 33.2514 5.49714C31.5678 6.13143 29.8842 6.76571 28.2006 7.61143Z" fill="white"/>
<path d="M38.0918 57.0857C38.9336 56.0286 40.6172 53.28 43.3531 48.84C45.6681 45.0343 49.4562 39.7486 54.7175 32.7714C57.6638 28.7543 60.3997 25.3714 62.9251 22.6229C64.3983 20.9314 65.661 20.0857 66.7133 20.0857C67.3446 20.0857 67.976 20.2972 68.3969 20.72C68.8178 21.1429 69.0282 21.5657 69.0282 22.2C69.0282 23.0457 68.6073 24.3143 67.5551 26.0057C67.3446 26.4286 66.2924 28.12 64.6088 31.2914C61.452 37 59.3475 41.0172 58.0847 43.3429C54.928 49.8972 52.613 55.6057 51.3503 60.2572C50.5085 63.4286 50.0876 65.5429 50.0876 66.8114C50.0876 67.0229 50.0876 67.4457 50.0876 67.6572C50.298 68.5029 50.298 69.1371 50.298 69.3486C50.298 69.9829 50.0876 70.6172 49.4562 71.2514C49.0353 71.8857 48.404 72.0971 47.983 72.0971C47.3517 72.0971 46.7203 71.6743 46.2994 70.8286C45.8785 70.1943 45.6681 69.3486 45.6681 68.2914C45.6681 61.5257 51.3503 47.9943 62.7147 27.9086C56.822 34.2514 50.298 43.3429 42.9322 55.3943C41.2486 57.9314 39.9859 59.6229 38.9336 60.68C37.8814 61.5257 37.0395 61.9486 35.9873 61.9486C35.1455 61.9486 34.3037 61.5257 33.8828 60.68C33.6723 60.0457 33.4619 59.6229 33.4619 58.7771C33.4619 52.6457 37.0395 43.1314 44.1949 30.2343C41.6695 32.7714 39.3545 35.52 37.25 38.9029C33.2514 45.0343 29.4633 51.1657 26.3065 57.5086C24.8333 60.68 22.9393 64.6972 20.8347 69.7714C19.9929 72.7314 18.7302 74 17.4675 74C17.0466 74 16.8362 73.7886 16.6257 73.5772C16.4153 73.3657 16.4153 73.1543 16.4153 72.7314C16.4153 72.3086 16.8362 71.04 17.678 68.9257C19.572 64.4857 21.0452 61.1029 22.0975 59.2C27.3588 49.0514 33.4619 39.5372 40.4068 30.6572C43.3531 26.8514 45.4576 24.5257 46.5099 23.4686C47.7726 22.4114 48.6144 21.7772 49.4562 21.7772C49.8771 21.7772 50.5085 21.9886 50.9294 22.4114C51.5607 22.8343 51.7712 23.4686 51.7712 24.1029C51.7712 24.7372 51.3503 26.0057 50.298 27.6972C47.3517 32.3486 44.8263 37.8457 42.3008 43.5543C39.9859 49.0514 38.7232 53.4914 38.0918 57.0857Z" fill="white"/>
<path d="M131.898 69V61.8906H133.886C134.468 61.8906 134.991 62.0241 135.453 62.291C135.915 62.5547 136.275 62.9339 136.532 63.4287C136.793 63.9235 136.923 64.4867 136.923 65.1182V65.7725C136.923 66.4072 136.794 66.9704 136.537 67.4619C136.28 67.9535 135.917 68.3327 135.448 68.5996C134.983 68.8665 134.447 69 133.842 69H131.898ZM132.499 62.4033V68.4922H133.847C134.595 68.4922 135.196 68.2448 135.648 67.75C136.101 67.252 136.327 66.5798 136.327 65.7334V65.1084C136.327 64.2913 136.104 63.637 135.658 63.1455C135.212 62.654 134.625 62.4066 133.896 62.4033H132.499ZM140.36 69.0977C139.911 69.0977 139.504 68.987 139.14 68.7656C138.778 68.5443 138.497 68.2367 138.295 67.8428C138.093 67.4456 137.992 67.0013 137.992 66.5098V66.2998C137.992 65.792 138.09 65.3346 138.285 64.9277C138.484 64.5208 138.759 64.2018 139.11 63.9707C139.462 63.7363 139.843 63.6191 140.253 63.6191C140.894 63.6191 141.402 63.8389 141.776 64.2783C142.154 64.7145 142.343 65.3118 142.343 66.0703V66.3975H138.573V66.5098C138.573 67.1087 138.744 67.6084 139.086 68.0088C139.431 68.4059 139.864 68.6045 140.385 68.6045C140.697 68.6045 140.972 68.5475 141.21 68.4336C141.451 68.3197 141.669 68.1374 141.864 67.8867L142.23 68.165C141.801 68.7868 141.177 69.0977 140.36 69.0977ZM140.253 64.1172C139.813 64.1172 139.442 64.2783 139.14 64.6006C138.84 64.9229 138.658 65.3558 138.593 65.8994H141.762V65.8359C141.745 65.3281 141.601 64.9147 141.327 64.5957C141.054 64.2767 140.696 64.1172 140.253 64.1172ZM146.645 67.6572C146.645 67.3675 146.527 67.1348 146.293 66.959C146.062 66.7832 145.712 66.6465 145.243 66.5488C144.774 66.4479 144.41 66.334 144.149 66.207C143.892 66.0768 143.7 65.9189 143.573 65.7334C143.45 65.5479 143.388 65.3232 143.388 65.0596C143.388 64.6429 143.562 64.2995 143.91 64.0293C144.258 63.7559 144.704 63.6191 145.248 63.6191C145.837 63.6191 146.309 63.7656 146.664 64.0586C147.022 64.3483 147.201 64.7275 147.201 65.1963H146.615C146.615 64.887 146.485 64.6299 146.225 64.4248C145.967 64.2197 145.642 64.1172 145.248 64.1172C144.864 64.1172 144.555 64.2035 144.32 64.376C144.089 64.5452 143.974 64.7666 143.974 65.04C143.974 65.3037 144.07 65.5088 144.262 65.6553C144.457 65.7985 144.81 65.9303 145.321 66.0508C145.836 66.1712 146.22 66.2998 146.474 66.4365C146.731 66.5732 146.921 66.7376 147.045 66.9297C147.169 67.1217 147.23 67.3545 147.23 67.6279C147.23 68.0739 147.05 68.4303 146.688 68.6973C146.33 68.9642 145.862 69.0977 145.282 69.0977C144.667 69.0977 144.167 68.9495 143.783 68.6533C143.402 68.3538 143.212 67.9762 143.212 67.5205H143.798C143.821 67.8623 143.964 68.1292 144.228 68.3213C144.494 68.5101 144.846 68.6045 145.282 68.6045C145.689 68.6045 146.018 68.515 146.269 68.3359C146.519 68.1569 146.645 67.9307 146.645 67.6572ZM149.203 69H148.617V63.7168H149.203V69ZM148.515 62.1885C148.515 62.0778 148.55 61.985 148.622 61.9102C148.694 61.832 148.791 61.793 148.915 61.793C149.039 61.793 149.136 61.832 149.208 61.9102C149.283 61.985 149.32 62.0778 149.32 62.1885C149.32 62.2992 149.283 62.3919 149.208 62.4668C149.136 62.5417 149.039 62.5791 148.915 62.5791C148.791 62.5791 148.694 62.5417 148.622 62.4668C148.55 62.3919 148.515 62.2992 148.515 62.1885ZM150.561 66.3096C150.561 65.4827 150.743 64.8285 151.107 64.3467C151.475 63.8617 151.973 63.6191 152.602 63.6191C153.321 63.6191 153.868 63.9056 154.242 64.4785L154.271 63.7168H154.818V68.8926C154.818 69.5729 154.628 70.1117 154.247 70.5088C153.866 70.9059 153.35 71.1045 152.699 71.1045C152.331 71.1045 151.98 71.0215 151.645 70.8555C151.312 70.6927 151.05 70.4746 150.858 70.2012L151.186 69.8496C151.599 70.3574 152.09 70.6113 152.66 70.6113C153.148 70.6113 153.529 70.4665 153.803 70.1768C154.076 69.8903 154.218 69.4915 154.228 68.9805V68.3164C153.853 68.8372 153.308 69.0977 152.592 69.0977C151.98 69.0977 151.488 68.8535 151.117 68.3652C150.746 67.877 150.561 67.2178 150.561 66.3877V66.3096ZM151.151 66.4121C151.151 67.0859 151.286 67.6182 151.557 68.0088C151.827 68.3962 152.208 68.5898 152.699 68.5898C153.419 68.5898 153.928 68.2676 154.228 67.623V65.167C154.091 64.8285 153.894 64.5713 153.637 64.3955C153.38 64.2165 153.07 64.127 152.709 64.127C152.217 64.127 151.835 64.3206 151.562 64.708C151.288 65.0921 151.151 65.6602 151.151 66.4121ZM156.898 63.7168L156.918 64.6201C157.117 64.2946 157.364 64.0472 157.66 63.8779C157.956 63.7054 158.284 63.6191 158.642 63.6191C159.208 63.6191 159.63 63.7786 159.906 64.0977C160.183 64.4167 160.323 64.8952 160.326 65.5332V69H159.745V65.5283C159.742 65.0563 159.641 64.7048 159.442 64.4736C159.247 64.2425 158.933 64.127 158.5 64.127C158.139 64.127 157.818 64.2409 157.538 64.4688C157.261 64.6934 157.056 64.9977 156.923 65.3818V69H156.342V63.7168H156.898ZM163.886 69.0977C163.437 69.0977 163.03 68.987 162.665 68.7656C162.304 68.5443 162.022 68.2367 161.82 67.8428C161.618 67.4456 161.518 67.0013 161.518 66.5098V66.2998C161.518 65.792 161.615 65.3346 161.811 64.9277C162.009 64.5208 162.284 64.2018 162.636 63.9707C162.987 63.7363 163.368 63.6191 163.778 63.6191C164.42 63.6191 164.927 63.8389 165.302 64.2783C165.679 64.7145 165.868 65.3118 165.868 66.0703V66.3975H162.099V66.5098C162.099 67.1087 162.27 67.6084 162.611 68.0088C162.956 68.4059 163.389 68.6045 163.91 68.6045C164.223 68.6045 164.498 68.5475 164.735 68.4336C164.976 68.3197 165.194 68.1374 165.39 67.8867L165.756 68.165C165.326 68.7868 164.703 69.0977 163.886 69.0977ZM163.778 64.1172C163.339 64.1172 162.968 64.2783 162.665 64.6006C162.366 64.9229 162.183 65.3558 162.118 65.8994H165.287V65.8359C165.271 65.3281 165.126 64.9147 164.853 64.5957C164.579 64.2767 164.221 64.1172 163.778 64.1172ZM169.447 64.2148C169.324 64.1921 169.192 64.1807 169.052 64.1807C168.687 64.1807 168.378 64.2832 168.124 64.4883C167.873 64.6901 167.694 64.9847 167.587 65.3721V69H167.006V63.7168H167.577L167.587 64.5566C167.896 63.9316 168.393 63.6191 169.076 63.6191C169.239 63.6191 169.368 63.6403 169.462 63.6826L169.447 64.2148ZM174.071 67.7842L174.159 68.2383L174.276 67.7598L175.546 63.7168H176.044L177.299 67.7256L177.436 68.2822L177.548 67.7695L178.632 63.7168H179.237L177.699 69H177.201L175.844 64.8105L175.78 64.5225L175.717 64.8154L174.384 69H173.886L172.353 63.7168H172.953L174.071 67.7842ZM182.392 69.0977C181.942 69.0977 181.535 68.987 181.171 68.7656C180.81 68.5443 180.528 68.2367 180.326 67.8428C180.124 67.4456 180.023 67.0013 180.023 66.5098V66.2998C180.023 65.792 180.121 65.3346 180.316 64.9277C180.515 64.5208 180.79 64.2018 181.142 63.9707C181.493 63.7363 181.874 63.6191 182.284 63.6191C182.925 63.6191 183.433 63.8389 183.808 64.2783C184.185 64.7145 184.374 65.3118 184.374 66.0703V66.3975H180.604V66.5098C180.604 67.1087 180.775 67.6084 181.117 68.0088C181.462 68.4059 181.895 68.6045 182.416 68.6045C182.729 68.6045 183.004 68.5475 183.241 68.4336C183.482 68.3197 183.7 68.1374 183.896 67.8867L184.262 68.165C183.832 68.7868 183.209 69.0977 182.392 69.0977ZM182.284 64.1172C181.845 64.1172 181.474 64.2783 181.171 64.6006C180.871 64.9229 180.689 65.3558 180.624 65.8994H183.793V65.8359C183.777 65.3281 183.632 64.9147 183.358 64.5957C183.085 64.2767 182.727 64.1172 182.284 64.1172ZM188.847 69C188.788 68.834 188.751 68.5882 188.734 68.2627C188.529 68.5296 188.267 68.7363 187.948 68.8828C187.632 69.026 187.297 69.0977 186.942 69.0977C186.435 69.0977 186.023 68.9561 185.707 68.6729C185.395 68.3896 185.238 68.0316 185.238 67.5986C185.238 67.0843 185.451 66.6774 185.878 66.3779C186.308 66.0785 186.905 65.9287 187.67 65.9287H188.729V65.3281C188.729 64.9505 188.612 64.6543 188.378 64.4395C188.147 64.2214 187.808 64.1123 187.362 64.1123C186.955 64.1123 186.618 64.2165 186.352 64.4248C186.085 64.6331 185.951 64.8838 185.951 65.1768L185.365 65.1719C185.365 64.752 185.561 64.389 185.951 64.083C186.342 63.7738 186.822 63.6191 187.392 63.6191C187.981 63.6191 188.445 63.7673 188.783 64.0635C189.125 64.3564 189.301 64.7666 189.311 65.2939V67.7939C189.311 68.305 189.364 68.6875 189.472 68.9414V69H188.847ZM187.011 68.5801C187.401 68.5801 187.75 68.4857 188.056 68.2969C188.365 68.1081 188.59 67.8558 188.729 67.54V66.3779H187.685C187.102 66.3844 186.646 66.4919 186.317 66.7002C185.989 66.9053 185.824 67.1885 185.824 67.5498C185.824 67.846 185.933 68.0918 186.151 68.2871C186.373 68.4824 186.659 68.5801 187.011 68.5801ZM193.314 64.2148C193.191 64.1921 193.059 64.1807 192.919 64.1807C192.554 64.1807 192.245 64.2832 191.991 64.4883C191.741 64.6901 191.562 64.9847 191.454 65.3721V69H190.873V63.7168H191.444L191.454 64.5566C191.763 63.9316 192.26 63.6191 192.943 63.6191C193.106 63.6191 193.235 63.6403 193.329 63.6826L193.314 64.2148ZM197.094 69V64.1953H196.22V63.7168H197.094V63.0771C197.094 62.5368 197.23 62.1217 197.504 61.832C197.781 61.5423 198.165 61.3975 198.656 61.3975C198.878 61.3975 199.084 61.4251 199.276 61.4805L199.232 61.9688C199.07 61.9297 198.892 61.9102 198.7 61.9102C198.378 61.9102 198.127 62.0111 197.948 62.2129C197.769 62.4115 197.68 62.6947 197.68 63.0625V63.7168H198.939V64.1953H197.68V69H197.094ZM199.662 66.2803C199.662 65.7725 199.76 65.3151 199.955 64.9082C200.154 64.5013 200.432 64.1855 200.79 63.9609C201.151 63.7331 201.56 63.6191 202.016 63.6191C202.719 63.6191 203.288 63.8665 203.725 64.3613C204.161 64.8529 204.379 65.5055 204.379 66.3193V66.4414C204.379 66.9525 204.28 67.4131 204.081 67.8232C203.886 68.2301 203.609 68.5443 203.251 68.7656C202.893 68.987 202.484 69.0977 202.025 69.0977C201.326 69.0977 200.756 68.8519 200.316 68.3604C199.88 67.8656 199.662 67.2113 199.662 66.3975V66.2803ZM200.248 66.4414C200.248 67.0729 200.411 67.5921 200.736 67.999C201.065 68.4027 201.495 68.6045 202.025 68.6045C202.553 68.6045 202.979 68.4027 203.305 67.999C203.633 67.5921 203.798 67.0566 203.798 66.3926V66.2803C203.798 65.8766 203.723 65.5072 203.573 65.1719C203.424 64.8366 203.214 64.5778 202.943 64.3955C202.673 64.21 202.364 64.1172 202.016 64.1172C201.495 64.1172 201.07 64.3223 200.741 64.7324C200.412 65.1393 200.248 65.6732 200.248 66.334V66.4414ZM208.031 64.2148C207.908 64.1921 207.776 64.1807 207.636 64.1807C207.271 64.1807 206.962 64.2832 206.708 64.4883C206.457 64.6901 206.278 64.9847 206.171 65.3721V69H205.59V63.7168H206.161L206.171 64.5566C206.48 63.9316 206.977 63.6191 207.66 63.6191C207.823 63.6191 207.951 63.6403 208.046 63.6826L208.031 64.2148ZM213.344 68.6045C213.751 68.6045 214.091 68.4906 214.364 68.2627C214.641 68.0316 214.791 67.7337 214.813 67.3691H215.375C215.359 67.6914 215.258 67.986 215.072 68.2529C214.887 68.5166 214.639 68.7233 214.33 68.873C214.024 69.0228 213.695 69.0977 213.344 69.0977C212.65 69.0977 212.1 68.8568 211.693 68.375C211.29 67.8932 211.088 67.2454 211.088 66.4316V66.2559C211.088 65.735 211.179 65.2744 211.361 64.874C211.544 64.4736 211.804 64.1644 212.143 63.9463C212.484 63.7282 212.883 63.6191 213.339 63.6191C213.918 63.6191 214.395 63.7917 214.77 64.1367C215.147 64.4818 215.349 64.9359 215.375 65.499H214.813C214.787 65.0856 214.638 64.752 214.364 64.498C214.094 64.2441 213.752 64.1172 213.339 64.1172C212.812 64.1172 212.401 64.3076 212.108 64.6885C211.819 65.0693 211.674 65.6032 211.674 66.29V66.4609C211.674 67.1348 211.819 67.6605 212.108 68.0381C212.401 68.4157 212.813 68.6045 213.344 68.6045ZM217.128 64.6104C217.32 64.2946 217.566 64.0505 217.865 63.8779C218.165 63.7054 218.492 63.6191 218.847 63.6191C219.413 63.6191 219.835 63.7786 220.111 64.0977C220.388 64.4167 220.528 64.8952 220.531 65.5332V69H219.95V65.5283C219.947 65.0563 219.846 64.7048 219.647 64.4736C219.452 64.2425 219.138 64.127 218.705 64.127C218.344 64.127 218.023 64.2409 217.743 64.4688C217.466 64.6934 217.261 64.9977 217.128 65.3818V69H216.547V61.5H217.128V64.6104ZM222.689 69H222.104V63.7168H222.689V69ZM222.001 62.1885C222.001 62.0778 222.037 61.985 222.108 61.9102C222.18 61.832 222.278 61.793 222.401 61.793C222.525 61.793 222.623 61.832 222.694 61.9102C222.769 61.985 222.807 62.0778 222.807 62.1885C222.807 62.2992 222.769 62.3919 222.694 62.4668C222.623 62.5417 222.525 62.5791 222.401 62.5791C222.278 62.5791 222.18 62.5417 222.108 62.4668C222.037 62.3919 222.001 62.2992 222.001 62.1885ZM224.936 69H224.35V61.5H224.936V69ZM226.293 66.3096C226.293 65.4893 226.475 64.8366 226.84 64.3516C227.208 63.8633 227.706 63.6191 228.334 63.6191C229.047 63.6191 229.59 63.9007 229.965 64.4639V61.5H230.546V69H229.999L229.975 68.2969C229.6 68.8307 229.05 69.0977 228.324 69.0977C227.715 69.0977 227.224 68.8535 226.85 68.3652C226.479 67.8737 226.293 67.2113 226.293 66.3779V66.3096ZM226.884 66.4121C226.884 67.0859 227.019 67.6182 227.289 68.0088C227.559 68.3962 227.94 68.5898 228.432 68.5898C229.151 68.5898 229.662 68.2725 229.965 67.6377V65.1572C229.662 64.4704 229.154 64.127 228.441 64.127C227.95 64.127 227.567 64.3206 227.294 64.708C227.021 65.0921 226.884 65.6602 226.884 66.4121ZM234.525 64.2148C234.402 64.1921 234.27 64.1807 234.13 64.1807C233.765 64.1807 233.456 64.2832 233.202 64.4883C232.951 64.6901 232.772 64.9847 232.665 65.3721V69H232.084V63.7168H232.655L232.665 64.5566C232.974 63.9316 233.471 63.6191 234.154 63.6191C234.317 63.6191 234.446 63.6403 234.54 63.6826L234.525 64.2148ZM237.401 69.0977C236.952 69.0977 236.545 68.987 236.181 68.7656C235.819 68.5443 235.538 68.2367 235.336 67.8428C235.134 67.4456 235.033 67.0013 235.033 66.5098V66.2998C235.033 65.792 235.131 65.3346 235.326 64.9277C235.525 64.5208 235.8 64.2018 236.151 63.9707C236.503 63.7363 236.884 63.6191 237.294 63.6191C237.935 63.6191 238.443 63.8389 238.817 64.2783C239.195 64.7145 239.384 65.3118 239.384 66.0703V66.3975H235.614V66.5098C235.614 67.1087 235.785 67.6084 236.127 68.0088C236.472 68.4059 236.905 68.6045 237.426 68.6045C237.738 68.6045 238.013 68.5475 238.251 68.4336C238.492 68.3197 238.71 68.1374 238.905 67.8867L239.271 68.165C238.842 68.7868 238.218 69.0977 237.401 69.0977ZM237.294 64.1172C236.854 64.1172 236.483 64.2783 236.181 64.6006C235.881 64.9229 235.699 65.3558 235.634 65.8994H238.803V65.8359C238.786 65.3281 238.642 64.9147 238.368 64.5957C238.095 64.2767 237.737 64.1172 237.294 64.1172ZM241.078 63.7168L241.098 64.6201C241.296 64.2946 241.544 64.0472 241.84 63.8779C242.136 63.7054 242.463 63.6191 242.821 63.6191C243.388 63.6191 243.809 63.7786 244.086 64.0977C244.363 64.4167 244.503 64.8952 244.506 65.5332V69H243.925V65.5283C243.922 65.0563 243.821 64.7048 243.622 64.4736C243.427 64.2425 243.113 64.127 242.68 64.127C242.318 64.127 241.998 64.2409 241.718 64.4688C241.441 64.6934 241.236 64.9977 241.103 65.3818V69H240.521V63.7168H241.078Z" fill="black"/>
</g>
<defs>
<clipPath id="clip0">
<rect width="298" height="74" fill="white"/>
</clipPath>
</defs>
</svg>
