<svg width="13" height="13" xmlns="http://www.w3.org/2000/svg"><g clip-path="url(#clip0)" fill="#000"><path d="M6.72 12.255h3.39c.922 0 1.67-.75 1.67-1.669V2.414c0-.921-.75-1.67-1.67-1.67H6.664a.37.37 0 01-.372-.372A.37.37 0 016.664 0h3.446a2.417 2.417 0 012.414 2.414v8.172A2.417 2.417 0 0110.11 13H6.72a.373.373 0 010-.745z" fill="#000"/><path d="M.584 6.238L2.951 3.87a.371.371 0 01.527 0 .371.371 0 010 .527L1.746 6.13h7.556a.37.37 0 01.373.373.37.37 0 01-.373.372H1.746l1.732 1.733a.375.375 0 01-.262.637.363.363 0 01-.262-.11L.587 6.768a.372.372 0 01-.003-.53z"fill="#000"/></g><defs><clipPath id="clip0"/></defs></svg>