<svg width="25" height="25" viewBox="0 0 25 25" fill="none" xmlns="http://www.w3.org/2000/svg">
<path d="M7.24893 7.22334C7.16768 6.96499 6.89233 6.82148 6.63418 6.90283C6.37593 6.98408 6.23247 7.25933 6.31367 7.51753C6.35283 7.64204 6.37271 7.77212 6.37271 7.90439C6.37271 8.61416 5.79546 9.19165 5.08594 9.19165C4.37617 9.19165 3.79868 8.61421 3.79868 7.90439C3.79868 7.19482 4.37612 6.61763 5.08594 6.61763C5.21377 6.61763 5.33989 6.63623 5.46079 6.6729C5.71987 6.75151 5.9936 6.60532 6.07227 6.34629C6.15088 6.08721 6.00469 5.81348 5.74561 5.73481C5.53237 5.67007 5.31045 5.63721 5.08599 5.63721C3.8356 5.63721 2.81836 6.65425 2.81836 7.90435C2.81836 9.15474 3.8356 10.172 5.08599 10.172C6.33608 10.172 7.35313 9.15474 7.35313 7.90435C7.35313 7.67231 7.31807 7.44316 7.24893 7.22334Z" fill="black"/>
<path d="M24.5097 18.5294C24.239 18.5294 24.0195 18.7489 24.0195 19.0196V19.4117C24.0195 19.6824 24.239 19.9019 24.5097 19.9019C24.7804 19.9019 24.9999 19.6825 24.9999 19.4118V19.0196C24.9999 18.7489 24.7804 18.5294 24.5097 18.5294Z" fill="black"/>
<path d="M24.5098 18.0392C24.7806 18.0392 25 17.8197 25 17.549V12.5C25 12.2293 24.7805 12.0098 24.5098 12.0098H8.08364C9.34819 11.0838 10.1711 9.58849 10.1711 7.90446C10.1711 5.10045 7.88989 2.81915 5.08584 2.81915C2.28149 2.81915 0 5.1004 0 7.90441V17.0956C0 19.8996 2.28149 22.1809 5.08579 22.1809H24.5098C24.7806 22.1809 25 21.9613 25 21.6907V20.8823C25 20.6116 24.7805 20.3922 24.5098 20.3922C24.2391 20.3922 24.0196 20.6117 24.0196 20.8823V21.2005H20.098V12.9902H24.0196V17.549C24.0196 17.8197 24.2391 18.0392 24.5098 18.0392ZM5.08579 3.79952C7.34922 3.79952 9.19067 5.64093 9.19067 7.90441C9.19067 10.1681 7.34922 12.0098 5.08579 12.0098C2.82207 12.0098 0.98042 10.1681 0.98042 7.90441C0.980371 5.64093 2.82207 3.79952 5.08579 3.79952ZM19.1176 21.2005H17.3529V19.8912C17.3529 19.6205 17.1334 19.401 16.8627 19.401C16.592 19.401 16.3726 19.6205 16.3726 19.8912V21.2005H14.673V20.7911C14.673 20.5204 14.4536 20.3009 14.1829 20.3009C13.9122 20.3009 13.6927 20.5205 13.6927 20.7911V21.2005H11.9937V19.8912C11.9937 19.6205 11.7742 19.401 11.5035 19.401C11.2327 19.401 11.0133 19.6205 11.0133 19.8912V21.2005H9.31377V20.7911C9.31377 20.5204 9.09429 20.3009 8.82358 20.3009C8.55283 20.3009 8.3334 20.5205 8.3334 20.7911V21.2005H6.63389V19.8912C6.63389 19.6205 6.4144 19.401 6.1437 19.401C5.87295 19.401 5.65352 19.6205 5.65352 19.8912V21.2005H5.08589C4.69346 21.2005 4.31416 21.1441 3.95454 21.0407V20.4652C3.95454 20.1945 3.73506 19.975 3.46436 19.975C3.1936 19.975 2.97417 20.1945 2.97417 20.4652V20.6143C1.78066 19.8955 0.980518 18.5874 0.980518 17.0956V10.9025C1.90659 12.1672 3.40186 12.9902 5.08589 12.9902H5.65352V14.2995C5.65352 14.5702 5.873 14.7897 6.1437 14.7897C6.41445 14.7897 6.63389 14.5702 6.63389 14.2995V12.9902H11.0133V14.2995C11.0133 14.5702 11.2328 14.7897 11.5035 14.7897C11.7742 14.7897 11.9937 14.5702 11.9937 14.2995V12.9902H16.3726V14.2995C16.3726 14.5702 16.592 14.7897 16.8627 14.7897C17.1334 14.7897 17.3529 14.5702 17.3529 14.2995V12.9902H19.1176V21.2005Z" fill="black"/>
<path d="M22.0589 15.7721C21.3291 15.7721 20.7354 16.3658 20.7354 17.0956C20.7354 17.8254 21.3291 18.4191 22.0589 18.4191C22.7887 18.4191 23.3824 17.8254 23.3824 17.0956C23.3824 16.3658 22.7887 15.7721 22.0589 15.7721ZM22.0589 17.4387C21.8697 17.4387 21.7158 17.2848 21.7158 17.0956C21.7158 16.9064 21.8697 16.7525 22.0589 16.7525C22.2481 16.7525 22.402 16.9064 22.402 17.0956C22.402 17.2848 22.2481 17.4387 22.0589 17.4387Z" fill="black"/>
</svg>
