<svg width="30" height="38" viewBox="0 0 30 38" fill="none" xmlns="http://www.w3.org/2000/svg">
<g filter="url(#filter0_d)">
<path d="M15.3029 31.2599L27.4368 22.0285C27.598 21.9097 27.719 21.672 27.719 21.4739V1.1886H2V21.4739C2 21.672 2.12094 21.9097 2.28219 22.0285L14.4161 31.2599C14.6982 31.458 15.061 31.458 15.3029 31.2599Z" fill="white"/>
</g>
<path d="M15.3029 30.0713L27.4368 20.8399C27.598 20.7211 27.719 20.4834 27.719 20.2853V0H2V20.2853C2 20.4834 2.12094 20.7211 2.28219 20.8399L14.4161 30.0713C14.6982 30.2694 15.061 30.2694 15.3029 30.0713Z" fill="#FB4343"/>
<g clip-path="url(#clip0)">
<path d="M13.8501 11.723C14.3944 11.1428 14.6943 10.3646 14.6943 9.53139C14.6943 7.94502 13.5414 6.33911 11.3375 6.33911C10.3119 6.33911 9.4466 6.68534 8.83515 7.34035C8.29353 7.92063 7.99533 8.69872 7.99533 9.53139C7.99533 11.1179 9.14334 12.7238 11.3375 12.7238C12.367 12.7238 13.236 12.3778 13.8501 11.723ZM11.3375 7.82341C12.545 7.82341 13.095 8.70936 13.095 9.53251C13.095 9.98029 12.9417 10.3948 12.6631 10.6996C12.3522 11.04 11.9005 11.2199 11.3571 11.2199C10.119 11.2199 9.55498 10.3341 9.55498 9.51102C9.55498 8.67113 10.1062 7.82341 11.3375 7.82341Z" fill="white"/>
<path d="M19.3528 7.57061C19.1531 7.57415 18.8804 7.69654 18.7468 7.8425L8.83248 18.6762C8.69893 18.8223 8.79354 19.027 8.99326 19.027H10.2909C10.4906 19.027 10.763 18.9073 10.8963 18.7611L20.7494 7.92959C20.8827 7.78329 20.8738 7.54526 20.5438 7.54535L19.3528 7.57061Z" fill="white"/>
<path d="M18.2692 13.9428C17.2633 13.9428 16.4145 14.2826 15.8146 14.9252C15.2833 15.4942 14.9906 16.2576 14.9906 17.0745C14.9906 18.6306 16.1168 20.206 18.2692 20.206C19.2794 20.206 20.1316 19.8665 20.7342 19.2243C21.2682 18.6551 21.5622 17.8916 21.5622 17.0745C21.5622 15.5183 20.4311 13.9428 18.2692 13.9428ZM18.2886 18.7689C17.0841 18.7689 16.5352 17.8799 16.5352 17.0543C16.5352 16.6047 16.6884 16.1886 16.9668 15.8827C17.2772 15.5413 17.7275 15.3609 18.2692 15.3609C19.4738 15.3609 20.0224 16.2497 20.0224 17.0756C20.0224 17.5251 19.8692 17.9413 19.591 18.2472C19.2805 18.5885 18.8302 18.7689 18.2886 18.7689Z" fill="white"/>
</g>
<defs>
<filter id="filter0_d" x="0" y="1.1886" width="29.719" height="36.2199" filterUnits="userSpaceOnUse" color-interpolation-filters="sRGB">
<feFlood flood-opacity="0" result="BackgroundImageFix"/>
<feColorMatrix in="SourceAlpha" type="matrix" values="0 0 0 0 0 0 0 0 0 0 0 0 0 0 0 0 0 0 127 0"/>
<feOffset dy="4"/>
<feGaussianBlur stdDeviation="1"/>
<feColorMatrix type="matrix" values="0 0 0 0 0 0 0 0 0 0 0 0 0 0 0 0 0 0 0.1 0"/>
<feBlend mode="normal" in2="BackgroundImageFix" result="effect1_dropShadow"/>
<feBlend mode="normal" in="SourceGraphic" in2="effect1_dropShadow" result="shape"/>
</filter>
<clipPath id="clip0">
<rect width="14.1091" height="13.8669" fill="white" transform="translate(7.72424 6.33911)"/>
</clipPath>
</defs>
</svg>
