<svg width="18" height="18" viewBox="0 0 18 18" fill="none" xmlns="http://www.w3.org/2000/svg">
<path d="M12.9198 11.4525L12.594 11.8052L12.9331 12.145L17.2209 16.4415C17.2284 16.4502 17.232 16.4606 17.232 16.471C17.232 16.482 17.2284 16.4864 17.2267 16.4881L17.2191 16.4958L17.2162 16.4989C17.2153 16.4992 17.2143 16.4994 17.2133 16.4997C17.2123 16.4999 17.2116 16.4999 17.2112 16.5C17.211 16.4999 17.2106 16.4998 17.2102 16.4996C17.2086 16.499 17.2031 16.4964 17.1948 16.4881L12.8576 12.1509L12.5514 11.8447L12.2046 12.104C11.3112 12.772 10.2103 13.1657 9.01138 13.1657C6.06807 13.1657 3.67853 10.7684 3.67853 7.83285C3.67853 4.89734 6.06807 2.5 9.01138 2.5C11.9547 2.5 14.3442 4.89734 14.3442 7.83285C14.3442 9.2307 13.7984 10.5014 12.9198 11.4525ZM9.01138 2.55572C6.09534 2.55572 3.73425 4.92679 3.73425 7.83285C3.73425 10.7389 6.09534 13.11 9.01138 13.11C11.9268 13.11 14.2885 10.7483 14.2885 7.83285C14.2885 4.91681 11.9174 2.55572 9.01138 2.55572Z" stroke="#898989"/>
</svg>
