<svg width="82" height="82" viewBox="0 0 82 82" fill="none" xmlns="http://www.w3.org/2000/svg">
<path d="M46.125 2.5625H5.125C3.70922 2.5625 2.5625 3.70922 2.5625 5.125V25.625C2.5625 27.0408 3.70922 28.1875 5.125 28.1875H15.375V26.9062C15.375 25.4905 16.5217 24.3438 17.9375 24.3438C19.3533 24.3438 20.5 25.4905 20.5 26.9062V28.1875H46.125C47.5408 28.1875 48.6875 27.0408 48.6875 25.625V5.125C48.6875 3.70922 47.5408 2.5625 46.125 2.5625Z" fill="white"/>
<path d="M78.1562 55.0938V26.9062H70.4688V55.0938H67.9062V32.0312H60.2188V55.0938H57.6562V37.1562H49.9688V55.0938H48.9912L47.6971 45.6048C47.437 43.7098 45.7996 42.2812 43.8879 42.2812H38.4375C37.4497 42.2812 36.5566 42.6669 35.875 43.2806C35.1934 42.6656 34.3003 42.2812 33.3125 42.2812C32.8064 42.2812 32.3259 42.385 31.8826 42.5631C31.4406 40.9295 29.9595 39.7188 28.1875 39.7188C27.1997 39.7188 26.3066 40.1044 25.625 40.7181C24.9434 40.1031 24.0503 39.7188 23.0625 39.7188C22.6115 39.7188 22.1836 39.811 21.7812 39.9545V29.4688H46.125C48.2442 29.4688 49.9688 27.7442 49.9688 25.625V5.125C49.9688 3.00581 48.2442 1.28125 46.125 1.28125H5.125C3.00581 1.28125 1.28125 3.00581 1.28125 5.125V25.625C1.28125 27.7442 3.00581 29.4688 5.125 29.4688H14.0938V52.5492C14.0938 53.1322 13.9592 53.7164 13.7017 54.2392L12.6267 48.8643C11.8554 45.0193 8.45113 42.2274 4.52922 42.2274C2.73931 42.2274 1.28125 43.6842 1.28125 45.4754C1.28125 46.1186 1.46959 46.7413 1.82706 47.2768L3.14547 49.2538C3.63363 49.9867 3.94881 50.8349 4.05772 51.7087L4.94434 58.7978C5.09041 59.9792 5.46453 61.1015 6.01675 62.0599L10.25 70.7634V73.0312H7.6875V80.7188H35.875V73.0312H33.3125V70.8954L35.3625 68.1625C36.5195 66.6199 37.1562 64.7095 37.1562 62.7812V49.733C37.5586 49.8765 37.9865 49.9688 38.4375 49.9688H45.706L48.8502 73.0312H75.5938V70.4688H51.0873L50.6991 67.6218L77.1787 65.527C79.1633 65.3694 80.7188 63.6871 80.7188 61.6948V55.0938H78.1562ZM5.125 26.9062C4.41775 26.9062 3.84375 26.331 3.84375 25.625V5.125C3.84375 4.41903 4.41775 3.84375 5.125 3.84375H46.125C46.8322 3.84375 47.4062 4.41903 47.4062 5.125V25.625C47.4062 26.331 46.8322 26.9062 46.125 26.9062H21.7812C21.7812 24.7871 20.0567 23.0625 17.9375 23.0625C15.8183 23.0625 14.0938 24.7871 14.0938 26.9062H5.125ZM33.3125 78.1562H10.25V75.5938H33.3125V78.1562ZM34.5938 62.7812C34.5938 64.1586 34.1389 65.5244 33.3125 66.625L30.75 70.0421V73.0312H12.8125V70.1741L8.282 60.8645C7.85919 60.1265 7.59269 59.3244 7.48762 58.4814L6.59972 51.3909C6.44212 50.1263 5.986 48.8951 5.27747 47.8329L3.95906 45.8559C3.88347 45.7432 3.84375 45.6112 3.84375 45.4754C3.84375 45.0974 4.15125 44.7899 4.52922 44.7899C7.23394 44.7899 9.58247 46.7144 10.1142 49.3678L11.7619 57.6024H14.8856L15.9797 55.4141C16.4218 54.5287 16.6562 53.537 16.6562 52.5492V26.9062C16.6562 26.2003 17.2303 25.625 17.9375 25.625C18.6448 25.625 19.2188 26.2003 19.2188 26.9062V43.5625V48.6875H21.7812V43.5625C21.7812 42.8565 22.3552 42.2812 23.0625 42.2812C23.7698 42.2812 24.3438 42.8565 24.3438 43.5625V48.6875H26.9062V43.5625C26.9062 42.8565 27.4802 42.2812 28.1875 42.2812C28.8948 42.2812 29.4688 42.8565 29.4688 43.5625V46.125V48.6875H32.0312V46.125C32.0312 45.419 32.6052 44.8438 33.3125 44.8438C34.0197 44.8438 34.5938 45.419 34.5938 46.125V62.7812ZM38.4375 47.4062C37.7303 47.4062 37.1562 46.831 37.1562 46.125C37.1562 45.419 37.7303 44.8438 38.4375 44.8438H43.8879C44.526 44.8438 45.0718 45.3204 45.1577 45.952L45.3563 47.4062H38.4375ZM73.0312 29.4688H75.5938V55.0938H73.0312V29.4688ZM62.7812 34.5938H65.3438V55.0938H62.7812V34.5938ZM52.5312 39.7188H55.0938V55.0938H52.5312V39.7188ZM78.1562 61.6948C78.1562 62.3584 77.6386 62.9196 76.9762 62.9722L50.3518 65.0785L49.3409 57.6562H78.1562V61.6948Z" fill="black"/>
<path d="M49.9688 80.7188C47.1423 80.7188 44.8438 78.4202 44.8438 75.5938C44.8438 72.7673 47.1423 70.4688 49.9688 70.4688C52.7952 70.4688 55.0938 72.7673 55.0938 75.5938C55.0938 78.4202 52.7952 80.7188 49.9688 80.7188Z" fill="#333333"/>
<path d="M75.5938 80.7188C72.7673 80.7188 70.4688 78.4202 70.4688 75.5938C70.4688 72.7673 72.7673 70.4688 75.5938 70.4688C78.4202 70.4688 80.7188 72.7673 80.7188 75.5938C80.7188 78.4202 78.4202 80.7188 75.5938 80.7188Z" fill="#333333"/>
<path d="M11.7188 19H10L7.41211 15.3818V19H5.89844V11.8613H7.41211V15.3184L9.9707 11.8613H11.582L8.97949 15.2891L11.7188 19ZM18.2471 11.8613L16.04 16.9102C15.7633 17.5449 15.5029 18.0007 15.2588 18.2773C15.0179 18.554 14.7314 18.7607 14.3994 18.8975C14.0674 19.0309 13.6637 19.0977 13.1885 19.0977C12.7816 19.0977 12.4023 19.0488 12.0508 18.9512V17.6523C12.3372 17.7695 12.6937 17.8281 13.1201 17.8281C13.3903 17.8281 13.6084 17.7663 13.7744 17.6426C13.9404 17.5156 14.0788 17.2975 14.1895 16.9883L11.7188 11.8613H13.3203L15.0781 15.8408H15.127L15.2148 15.5967L16.6895 11.8613H18.2471ZM24.7998 19H23.291V13.1211H20.6641V19H19.1504V11.8613H24.7998V19ZM26.6016 11.8613H27.9639V15.3086L27.9443 16.2314L27.8955 17.2812H27.9248L31.2207 11.8613H33.0322V19H31.6846V15.5723C31.6846 15.1133 31.7139 14.4329 31.7725 13.5312H31.7334L28.4229 19H26.6016V11.8613ZM37.5879 19H36.0742V13.1211H34.1357V11.8613H39.5264V13.1211H37.5879V19ZM45.6543 16.7686C45.6543 18.2562 44.6712 19 42.7051 19H40.625V11.8613H42.1387V14.6006H42.7344C43.6654 14.6006 44.3848 14.7894 44.8926 15.167C45.4004 15.5446 45.6543 16.0785 45.6543 16.7686ZM42.1387 17.7598H42.6465C43.1576 17.7598 43.5319 17.6784 43.7695 17.5156C44.0072 17.3496 44.126 17.1006 44.126 16.7686C44.126 16.4398 44.0055 16.2038 43.7646 16.0605C43.5238 15.9141 43.1104 15.8408 42.5244 15.8408H42.1387V17.7598Z" fill="black"/>
</svg>
