<svg width="82" height="82" viewBox="0 0 82 82" fill="none" xmlns="http://www.w3.org/2000/svg">
<g clip-path="url(#clip0)">
<path d="M78.5145 2.05261H21.2371C19.3129 2.05486 17.7535 3.6142 17.7513 5.53847V21.337L15.1321 17.4082C13.9332 15.5997 11.5221 15.0571 9.66411 16.1779L4.27545 19.4177C2.51074 20.4532 1.2162 22.1323 0.663841 24.1024C-1.30192 31.2601 0.156663 43.5918 18.2572 61.6951C32.6516 76.0745 43.3839 79.9473 50.7807 79.9473C52.4932 79.9551 54.1992 79.7326 55.8524 79.2857C57.8217 78.7333 59.5008 77.4405 60.5384 75.6782L63.774 70.284C64.8903 68.4275 64.3482 66.0213 62.5437 64.8227L49.6406 56.2215C47.8706 55.0508 45.4981 55.4357 44.189 57.1059L40.4324 61.9355C40.0398 62.4523 39.3275 62.6029 38.7592 62.2896L38.0442 61.8958C35.6916 60.6136 32.7635 59.0169 26.8499 53.1033C26.2101 52.4635 25.6305 51.8648 25.0865 51.292H78.5145C80.4339 51.2934 81.9928 49.7419 82.0003 47.8224V5.53847C81.9981 3.6142 80.4387 2.05486 78.5145 2.05261ZM36.7361 64.2965L37.4305 64.6779C39.1762 65.654 41.3736 65.2011 42.5909 63.6144L46.3475 58.7848C46.7746 58.2408 47.5473 58.1153 48.1245 58.4963L61.0276 67.0975C61.6138 67.4882 61.79 68.2703 61.4281 68.8746L58.1925 74.2688C57.5168 75.4275 56.419 76.2798 55.1291 76.6474C48.6673 78.4245 37.3581 76.9209 20.1939 59.7554C3.02977 42.59 1.53178 31.2819 3.30467 24.8255C3.672 23.5358 4.52376 22.4382 5.68181 21.7621L11.0761 18.5251C11.6805 18.164 12.4621 18.34 12.8531 18.9255L21.4584 31.8287C21.8399 32.4057 21.7145 33.1791 21.1698 33.6057L16.3388 37.3636C14.7524 38.5806 14.2994 40.7775 15.2753 42.5227L15.658 43.2171C17.0249 45.7242 18.7241 48.8437 24.9181 55.0362C31.1122 61.2289 34.2304 62.9294 36.7361 64.2965ZM79.2664 47.8226C79.2619 48.2338 78.9257 48.5638 78.5146 48.5608H22.6204C20.845 46.5305 19.314 44.2989 18.0587 41.9117L17.6649 41.194C17.3509 40.6269 17.5012 39.9153 18.0177 39.5235L22.8487 35.7656C24.5195 34.4568 24.9045 32.084 23.7331 30.314L20.4852 25.4393V5.53847C20.4829 5.33839 20.5614 5.14583 20.7029 5.00438C20.8443 4.86293 21.0369 4.78443 21.237 4.78667H78.5145C78.7145 4.78443 78.9071 4.86293 79.0485 5.00438C79.19 5.14583 79.2685 5.33839 79.2663 5.53847V47.8226H79.2664Z" fill="black"/>
<path d="M73.8067 8.38193L50.9599 25.7087C50.3135 26.1784 49.4382 26.1784 48.7918 25.7087L25.9535 8.38193C25.3518 7.92553 24.494 8.04344 24.0378 8.64513C23.5814 9.24683 23.6993 10.1047 24.301 10.5609L47.1421 27.8862C48.7672 29.0867 50.9851 29.0867 52.6101 27.8862L75.4582 10.5609C75.7473 10.3418 75.9375 10.0166 75.9866 9.65709C76.0358 9.29761 75.9402 8.93332 75.7206 8.64449C75.2643 8.04392 74.4079 7.92649 73.8067 8.38193Z" fill="black"/>
<path d="M38.21 28.0011L24.2065 42.9972C23.6917 43.5494 23.722 44.4146 24.2741 44.9295C24.8263 45.4443 25.6916 45.4141 26.2064 44.8619L40.2101 29.8591C40.6727 29.3009 40.6191 28.4786 40.088 27.9851C39.5568 27.4915 38.7328 27.4986 38.21 28.0011Z" fill="black"/>
<path d="M61.6323 28.0011C61.1174 27.4489 60.2523 27.4184 59.7 27.9335C59.1478 28.4483 59.1174 29.3134 59.6324 29.8658L73.6319 44.8618C74.1468 45.414 75.0118 45.4445 75.5642 44.9294C76.1164 44.4146 76.1468 43.5495 75.6318 42.9972L61.6323 28.0011Z" fill="black"/>
</g>
<defs>
<clipPath id="clip0">
<rect width="82" height="82" fill="white"/>
</clipPath>
</defs>
</svg>
