<svg width="82" height="82" viewBox="0 0 82 82" fill="none" xmlns="http://www.w3.org/2000/svg">
<path d="M19.1336 53.9833C14.6113 53.9833 10.9336 57.661 10.9336 62.1833C10.9336 66.7057 14.6113 70.3833 19.1336 70.3833C23.6559 70.3833 27.3336 66.7057 27.3336 62.1833C27.3336 57.661 23.6558 53.9833 19.1336 53.9833ZM19.1336 67.6499C16.1186 67.6499 13.667 65.1981 13.667 62.1833C13.667 59.1684 16.1188 56.7167 19.1336 56.7167C22.1484 56.7167 24.6002 59.1686 24.6002 62.1833C24.6002 65.1981 22.1484 67.6499 19.1336 67.6499Z" fill="black"/>
<path d="M65.5999 53.9833C61.0776 53.9833 57.3999 57.661 57.3999 62.1833C57.3999 66.7057 61.0776 70.3833 65.5999 70.3833C70.1222 70.3833 73.7999 66.7057 73.7999 62.1833C73.7999 57.661 70.1222 53.9833 65.5999 53.9833ZM65.5999 67.6499C62.585 67.6499 60.1333 65.1981 60.1333 62.1833C60.1333 59.1684 62.5851 56.7167 65.5999 56.7167C68.6148 56.7167 71.0665 59.1686 71.0665 62.1833C71.0665 65.1981 68.6148 67.6499 65.5999 67.6499Z" fill="black"/>
<path d="M81.7829 46.4107L69.4829 27.2773C69.2314 26.8864 68.7982 26.65 68.3334 26.65H53.3002C52.5444 26.65 51.9336 27.2622 51.9336 28.0166V62.1832C51.9336 62.939 52.5444 63.5498 53.3002 63.5498H58.7668V60.8164H54.6668V29.3834H67.5873L79.2668 47.5518V60.8167H72.4334V63.55H80.6334C81.3892 63.55 82 62.9391 82 62.1834V47.15C82.0002 46.8889 81.9251 46.6306 81.7829 46.4107Z" fill="black"/>
<path d="M60.1331 44.4166V34.85H71.0665V32.1166H58.7665C58.0107 32.1166 57.3999 32.7289 57.3999 33.4832V45.7832C57.3999 46.539 58.0107 47.1498 58.7665 47.1498H79.2665V44.4164H60.1331V44.4166Z" fill="black"/>
<path d="M53.3 17.0834H1.36661C0.612277 17.0834 0 17.6957 0 18.45V62.1834C0 62.9392 0.612277 63.55 1.36661 63.55H12.3V60.8167H2.73339V19.8167H51.9334V60.8167H25.9666V63.55H53.3C54.0558 63.55 54.6666 62.9392 54.6666 62.1834V18.45C54.6666 17.6957 54.0558 17.0834 53.3 17.0834Z" fill="black"/>
<path d="M9.5667 55.35H1.3667V58.0834H9.5667V55.35Z" fill="black"/>
<path d="M51.9331 55.35H28.6997V58.0834H51.9331V55.35Z" fill="black"/>
<path d="M80.6331 55.35H75.1665V58.0834H80.6331V55.35Z" fill="black"/>
<path d="M53.3002 22.55H5.4668V25.2834H53.3002V22.55Z" fill="black"/>
<path d="M20.5 60.8167H17.7666V63.55H20.5V60.8167Z" fill="black"/>
<path d="M66.9668 60.8167H64.2334V63.55H66.9668V60.8167Z" fill="black"/>
<path d="M24.6002 11.6166H5.4668V14.35H24.6002V11.6166Z" fill="black"/>
<path d="M2.73339 11.6166H0V14.35H2.73339V11.6166Z" fill="black"/>
</svg>
