<svg width="19" height="19" viewBox="0 0 19 19" fill="none" xmlns="http://www.w3.org/2000/svg">
<path d="M9.43114 10.2377C9.45081 10.2377 9.47048 10.2377 9.49409 10.2377C9.50196 10.2377 9.50983 10.2377 9.5177 10.2377C9.5295 10.2377 9.54524 10.2377 9.55704 10.2377C10.7099 10.2181 11.6424 9.8128 12.3309 9.03769C13.8457 7.33009 13.5939 4.40278 13.5664 4.12342C13.468 2.0263 12.4765 1.02299 11.6581 0.554773C11.0482 0.204597 10.3361 0.0157382 9.54131 0H9.51376C9.50983 0 9.50196 0 9.49803 0H9.47442C9.03768 0 8.17995 0.0708221 7.35762 0.539035C6.53137 1.00725 5.52412 2.01056 5.42575 4.12342C5.39821 4.40278 5.1464 7.33009 6.66121 9.03769C7.34582 9.8128 8.27831 10.2181 9.43114 10.2377ZM6.47628 4.22179C6.47628 4.20998 6.48022 4.19818 6.48022 4.19031C6.61006 1.36923 8.61275 1.06627 9.47048 1.06627H9.48622C9.49409 1.06627 9.50589 1.06627 9.5177 1.06627C10.58 1.08987 12.386 1.52268 12.508 4.19031C12.508 4.20211 12.508 4.21392 12.5119 4.22179C12.5158 4.24933 12.7913 6.92483 11.5401 8.3334C11.0443 8.89211 10.3833 9.16753 9.51376 9.1754C9.5059 9.1754 9.50196 9.1754 9.49409 9.1754C9.48622 9.1754 9.48229 9.1754 9.47442 9.1754C8.60881 9.16753 7.94387 8.89211 7.45205 8.3334C6.2048 6.9327 6.47235 4.24539 6.47628 4.22179Z" fill="black"/>
<path d="M17.5796 15.093C17.5796 15.0891 17.5796 15.0851 17.5796 15.0812C17.5796 15.0497 17.5757 15.0182 17.5757 14.9828C17.5521 14.2038 17.5009 12.3821 15.7933 11.7998C15.7815 11.7958 15.7658 11.7919 15.754 11.788C13.9795 11.3355 12.504 10.3125 12.4883 10.3007C12.2483 10.1315 11.9178 10.1905 11.7486 10.4305C11.5794 10.6705 11.6384 11.001 11.8784 11.1702C11.9453 11.2175 13.5113 12.3073 15.4707 12.811C16.3875 13.1375 16.4898 14.1172 16.5173 15.0143C16.5173 15.0497 16.5173 15.0812 16.5212 15.1127C16.5252 15.4668 16.5016 16.0137 16.4386 16.3285C15.8012 16.6904 13.3028 17.9416 9.50197 17.9416C5.71692 17.9416 3.20274 16.6865 2.56141 16.3245C2.49845 16.0098 2.47091 15.4629 2.47878 15.1087C2.47878 15.0773 2.48271 15.0458 2.48271 15.0104C2.51026 14.1133 2.61255 13.1336 3.52931 12.807C5.48872 12.3034 7.05468 11.2096 7.12156 11.1663C7.36157 10.9971 7.42059 10.6666 7.2514 10.4266C7.08222 10.1866 6.75171 10.1276 6.51171 10.2968C6.49597 10.3086 5.02838 11.3316 3.24602 11.784C3.23028 11.788 3.21848 11.7919 3.20667 11.7958C1.49907 12.3821 1.44792 14.2038 1.42432 14.9789C1.42432 15.0143 1.42432 15.0458 1.42038 15.0773C1.42038 15.0812 1.42038 15.0851 1.42038 15.0891C1.41645 15.2937 1.41251 16.3442 1.62105 16.8714C1.66039 16.9737 1.73121 17.0603 1.82564 17.1193C1.94368 17.198 4.77263 19 9.50591 19C14.2392 19 17.0681 17.1941 17.1862 17.1193C17.2767 17.0603 17.3514 16.9737 17.3908 16.8714C17.5875 16.3481 17.5836 15.2976 17.5796 15.093Z" fill="black"/>
</svg>
